<svg width="809" height="462" viewBox="0 0 809 462" fill="none" xmlns="http://www.w3.org/2000/svg">
<g opacity="0.2">
<path d="M612.673 339C590.756 339.031 569.746 347.849 554.248 363.519C538.751 379.19 530.031 400.436 530 422.598V462H566.307V422.598C566.307 410.194 571.18 398.299 579.854 389.528C588.527 380.757 600.291 375.83 612.558 375.83C624.824 375.83 636.588 380.757 645.262 389.528C653.936 398.299 658.809 410.194 658.809 422.598V462H695V422.598C694.97 400.496 686.297 379.304 670.875 363.643C655.452 347.982 634.53 339.123 612.673 339Z" fill="#c35f45"/>
<path d="M331.807 136.16C331.83 132.993 330.921 129.89 329.195 127.245C327.469 124.601 325.004 122.533 322.113 121.305C319.222 120.077 316.035 119.744 312.956 120.347C309.877 120.951 307.045 122.465 304.819 124.696C302.593 126.927 301.074 129.776 300.453 132.881C299.833 135.985 300.14 139.206 301.335 142.134C302.53 145.063 304.559 147.567 307.165 149.329C309.771 151.091 312.837 152.031 315.974 152.032C320.153 152.032 324.163 150.363 327.129 147.39C330.095 144.417 331.776 140.38 331.807 136.16Z" fill="#c35f45"/>
<path d="M707.148 160.973C694.063 143.977 679.791 127.945 664.44 113L634 134.36C650.118 149.407 664.983 165.765 678.444 183.267C737.422 261.597 770.427 363.676 772.773 462H809C807.025 355.543 771.335 245.513 707.148 160.973Z" fill="#c35f45"/>
<path d="M416 462H452V268L416 293.376V462Z" fill="#c35f45"/>
<path d="M315.817 269.32C309.046 268.957 302.273 269.983 295.905 272.335C289.537 274.686 283.706 278.316 278.763 283.004C273.82 287.693 269.868 293.344 267.143 299.616C264.419 305.889 262.979 312.654 262.911 319.503C263.166 332.405 267.954 344.794 276.418 354.457C284.883 364.121 296.473 370.429 309.117 372.254V335.142C306.286 333.573 303.88 331.327 302.108 328.6C300.336 325.874 299.252 322.751 298.951 319.503C298.951 311.334 305.651 305.849 315.586 305.849C327.447 307.588 338.214 313.805 345.717 323.248C353.22 332.691 356.9 344.656 356.016 356.732C356.016 388.359 335.57 425.355 278.043 425.355C208.735 425.355 146.472 352.997 146.472 273.638C146.472 268.97 146.472 264.418 146.472 259.984C188.007 273.56 232.682 273.828 274.373 260.748C316.064 247.669 352.732 221.884 379.35 186.926V289.276L619.158 121.455L650 99.9808C575.432 33.7055 478.992 -1.9372 379.696 0.0812718C253.67 0.0812718 157.908 90.6444 123.6 192.645C134.114 197.951 145.098 202.249 156.407 205.482C172.092 157.524 201.995 115.599 242.061 85.391C282.128 55.1828 330.419 38.1529 380.389 36.61C454.61 35.3256 527.471 56.8111 589.355 98.2302L416.199 219.253V106.516H379.119C368.303 142.71 346.267 174.437 316.258 197.024C286.249 219.611 249.852 231.862 212.431 231.974C47.2454 231.974 0 55.8663 0 55.8663C0.0501048 94.6911 10.5177 132.776 30.2892 166.068C50.0606 199.36 78.3959 226.613 112.28 244.929C111.089 254.452 110.472 264.039 110.432 273.638C110.432 374.004 188.866 462 278.274 462C356.709 462 392.403 407.382 392.403 356.965C393.458 335.155 386.043 313.789 371.739 297.419C357.434 281.049 337.369 270.967 315.817 269.32Z" fill="#c35f45"/>
</g>
</svg>
