<svg width="100" height="100" viewBox="0 0 100 100" fill="none" xmlns="http://www.w3.org/2000/svg">
<path d="M96.582 31.917H93.6234C93.6859 31.2585 93.4055 30.6998 92.7816 30.2409C92.6973 30.2012 90.8648 29.3461 87.7672 28.3825V18.8525C87.7672 18.0433 87.1113 17.3873 86.3023 17.3873C73.8273 17.3873 64.3584 21.2063 58.6119 24.4101C55.3762 26.214 52.9383 28.014 51.317 29.3538C51.0701 26.6694 50.4275 22.5988 48.7705 18.2861C44.9826 8.42773 37.6873 2.10779 27.673 0.00909453C26.6295 -0.0733453 26.0412 0.404688 25.9078 1.4432V8.1384C23.3332 7.09345 20.6521 6.27218 17.9074 5.69686C16.8641 5.61461 16.2756 6.09245 16.1422 7.13096V27.3104C10.7488 28.5962 7.36895 30.1698 7.21836 30.2405C6.59473 30.6994 6.31406 31.2581 6.37656 31.9166H3.41797C1.5334 31.9166 0 33.4504 0 35.3353V80.1388C0 82.0332 2.92969 82.0332 2.92969 80.1388V35.3357C2.92969 35.0665 3.14883 34.8473 3.41797 34.8473H6.37656V92.4628C6.37656 93.272 7.03242 93.928 7.84141 93.928H92.1586C92.9676 93.928 93.6234 93.272 93.6234 92.4628V34.8473H96.582C96.8512 34.8473 97.0703 35.0665 97.0703 35.3357V96.5813C97.0703 96.8505 96.8512 97.0697 96.582 97.0697H54.4039C52.0293 94.6236 47.9709 94.6236 45.5961 97.0697H3.41797C3.14883 97.0697 2.92969 96.8505 2.92969 96.5813V89.0601C2.92969 87.1658 0 87.1658 0 89.0601V96.5813C0 98.4663 1.5334 100 3.41797 100H46.2652C46.7232 100 47.1549 99.7857 47.4318 99.421C48.7061 97.7429 51.2939 97.7429 52.5682 99.421C52.8451 99.7857 53.2768 100 53.7348 100H96.582C98.4666 100 100 98.4663 100 96.5813V35.3357C100 33.4506 98.4666 31.917 96.582 31.917ZM84.8375 20.336V35.3375C84.8375 36.1466 85.4934 36.8027 86.3023 36.8027C87.1113 36.8027 87.7672 36.1466 87.7672 35.3375V31.4599C89.0529 31.8844 90.0496 32.2685 90.6937 32.5318V42.5656V85.8866C79.8684 82.4591 70.8898 82.799 64.4307 84.1094C70.0568 81.6444 77.3906 79.6182 86.3023 79.6182C87.1113 79.6182 87.7672 78.9622 87.7672 78.1531V44.3238C87.7672 43.5147 87.1113 42.8587 86.3023 42.8587C85.4934 42.8587 84.8375 43.5147 84.8375 44.3238V76.7055C73.0844 76.9885 64.1314 80.6333 58.6119 83.7105C55.4768 85.4584 53.0883 87.2039 51.468 88.5293V33.1356C53.6978 30.9971 65.3117 20.8265 84.8375 20.336ZM28.8375 3.3018C36.9912 5.52475 42.7609 10.8828 46.0023 19.251C48.6428 26.0671 48.5385 32.4287 48.5371 32.4945C48.5369 32.5056 48.5367 32.5166 48.5367 32.5275V76.994C44.8408 67.8559 38.0555 61.8601 28.8375 59.576V3.3018ZM25.9078 11.3157V60.7438C25.9078 61.4371 26.3937 62.0357 27.0723 62.1779C36.1627 64.0826 42.5316 69.5916 46.0023 78.5514C46.9428 80.9791 47.5348 83.3487 47.9074 85.397C46.7773 83.7637 45.3531 81.9048 43.6057 79.9732C38.8764 74.7455 30.8291 68.0344 19.0719 65.2573V28.4645C19.0719 28.4627 19.0719 28.4612 19.0719 28.4594V8.97316C21.4207 9.56664 23.7102 10.3518 25.9078 11.3157ZM9.30625 32.5314C10.4977 32.044 12.9002 31.1436 16.1422 30.3286V66.4318C16.1422 67.1251 16.6281 67.7236 17.3066 67.8659C28.884 70.2918 36.7781 76.8153 41.3621 81.8607C43.2313 83.918 44.7191 85.9051 45.8514 87.5901C44.0701 86.711 41.8404 85.7826 39.185 85.0022C32.6795 83.0905 22.3271 81.764 9.30645 85.8866V42.5656L9.30625 32.5314ZM9.30625 88.9699C21.9713 84.7482 31.9854 85.9665 38.2125 87.771C41.5596 88.7409 44.1941 89.9757 46.0305 90.9977H9.30625V88.9699ZM53.9596 90.9977C55.7633 89.9935 58.3457 88.7821 61.641 87.8138C67.8949 85.9761 77.9562 84.724 90.6937 88.9699V90.9977H53.9596Z" fill="#c35f45"/>
</svg>
