<svg width="90" height="104" viewBox="0 0 90 104" fill="none" xmlns="http://www.w3.org/2000/svg">
<path d="M88.9905 59.28C88.0673 57.4311 86.5671 55.9289 84.8361 55.0044C89.5675 40.7911 86.2209 25.4222 76.8735 14.56C76.8735 14.56 76.8735 14.4444 76.7581 14.4444C76.7581 14.4444 76.6427 14.4444 76.6427 14.3289C73.296 10.5156 69.257 7.16444 64.5256 4.73778C58.4094 1.61778 51.7161 0 45.0229 0C45.0229 0 45.0229 0 44.9075 0C38.2143 0 31.521 1.61778 25.5202 4.73778C20.7887 7.16444 16.7497 10.5156 13.4031 14.3289C13.4031 14.3289 13.2877 14.3289 13.2877 14.4444L13.1723 14.56C3.82486 25.4222 0.478237 40.7911 5.20966 55.0044C3.47865 55.9289 1.97844 57.4311 1.05524 59.28C-0.0987669 61.7067 -0.329568 64.3644 0.478236 66.9067L5.09426 80.7733C6.47907 84.9333 10.4027 87.5911 14.5571 87.5911C15.5957 87.5911 16.6343 87.4756 17.6729 87.1289L22.4044 85.5111C23.6738 85.0489 24.7124 84.24 25.2894 82.9689C25.8664 81.8133 25.9818 80.4267 25.5202 79.1556L17.6729 55.8133C16.7497 53.1556 13.9801 51.7689 11.3259 52.6933L8.21008 53.7333C4.17106 41.2533 6.82527 27.9644 14.5571 18.1422L15.9419 19.2978C19.8655 22.7644 24.3662 21.84 26.5588 20.5689C27.2512 20.1067 27.9436 19.6444 28.5206 19.1822C29.5592 18.3733 30.5978 17.68 31.6364 17.1022C36.137 14.9067 40.4069 13.8667 45.0229 13.8667C49.6389 13.8667 53.9087 14.9067 58.0632 17.1022C59.1018 17.68 60.1404 18.3733 61.179 19.1822C61.8714 19.6444 62.5638 20.1067 63.1408 20.5689C64.2948 21.2622 65.795 21.84 67.526 21.84C69.6032 21.84 71.7958 21.1467 73.7577 19.4133L75.1424 18.2578C82.8743 28.08 85.6439 41.4844 81.4895 53.8489L78.4891 52.6933C77.2197 52.2311 75.8349 52.3467 74.6808 52.9244C73.5268 53.5022 72.6036 54.5422 72.142 55.8133L64.2948 79.1556C63.8332 80.4267 63.9486 81.8133 64.5256 82.9689C65.1026 84.1245 66.1412 85.0489 67.4106 85.5111L70.5264 86.5511L69.4878 89.9022C68.103 94.2933 64.2948 95.3333 61.2944 95.3333H55.4089V93.9467C55.4089 91.6356 53.4471 89.6711 51.1391 89.6711H42.8303C38.9067 89.6711 35.6754 92.9067 35.6754 96.8356C35.6754 100.764 38.9067 104 42.8303 104H51.1391C53.4471 104 55.4089 102.036 55.4089 99.7244V98.8H61.2944C67.0644 98.8 71.2188 95.9111 72.8344 90.9422L73.873 87.5911C74.3346 87.7067 74.7962 87.7067 75.2579 87.7067C79.4123 87.7067 83.3359 85.0489 84.7207 80.8889L89.3367 67.0222C90.3753 64.3644 90.1445 61.7067 88.9905 59.28ZM12.7107 56.0444C13.5185 55.8133 14.3263 56.16 14.6725 56.9689L22.5198 80.3111C22.7506 81.12 22.289 81.9289 21.5966 82.2756L16.8651 83.8933C13.5185 85.0489 9.82569 83.2 8.67168 79.8489L4.05566 65.9822C3.47865 64.3644 3.59405 62.6311 4.40186 61.0133C5.20966 59.3956 6.47907 58.24 8.09468 57.7778L12.7107 56.0444ZM71.4496 16.64C68.68 19.0667 65.9104 18.1422 64.9872 17.5644C64.4102 17.1022 63.7178 16.7556 63.1408 16.2933C61.9868 15.4844 60.8328 14.6756 59.5634 13.9822C55.0627 11.5556 50.1005 10.4 45.0229 10.4C39.9453 10.4 34.983 11.5556 30.367 13.9822C29.0976 14.6756 27.9436 15.4844 26.7896 16.2933C26.2126 16.7556 25.5202 17.2178 24.9432 17.5644C24.02 18.1422 21.2504 19.0667 18.4807 16.64L17.0959 15.4844C19.9809 12.48 23.3276 9.93778 27.1358 7.85778C32.675 4.96889 38.7913 3.46667 45.0229 3.46667H45.1383C51.2545 3.46667 57.3708 4.96889 62.91 7.85778C66.7182 9.82222 70.0648 12.48 72.9498 15.4844L71.4496 16.64ZM52.0623 99.7244C52.0623 100.187 51.7161 100.533 51.2545 100.533H42.9457C40.8685 100.533 39.2529 98.9156 39.2529 96.8356C39.2529 94.7556 40.8685 93.1378 42.9457 93.1378H51.2545C51.7161 93.1378 52.0623 93.4845 52.0623 93.9467V99.7244ZM86.2209 65.8667L81.6049 79.7333C80.4509 83.0844 76.7581 84.9333 73.4114 83.7778L68.68 82.16C67.8722 81.9289 67.4106 81.0044 67.7568 80.1956L75.6041 56.8533C75.8349 56.0444 76.7581 55.5822 77.5659 55.9289L82.1819 57.4311H82.2973C83.9129 58.0089 85.2977 59.1644 85.9901 60.6667C86.5671 62.4 86.6825 64.2489 86.2209 65.8667Z" fill="#023932"/>
<path d="M46.615 66.8894C58.3422 66.8894 68 57.32 68 45.4447C68 33.5694 58.3422 24 46.5 24C34.6578 24 25 33.6847 25 45.4447C25 51.3247 27.4144 56.9741 31.6685 61.0094L30.0588 70.9247C29.9439 71.6165 30.1738 72.1929 30.7487 72.6541C31.0936 72.8847 31.4385 73 31.7834 73C32.0134 73 32.3583 72.8847 32.5882 72.7694L44.5455 66.7741C45.2353 66.8894 45.9251 66.8894 46.615 66.8894ZM43.3957 63.4306L34.0829 68.1577L35.3476 60.6635C35.4626 60.0871 35.2326 59.3953 34.7727 59.0494C30.8636 55.5906 28.5642 50.6329 28.5642 45.4447C28.5642 35.5294 36.6123 27.4588 46.5 27.4588C56.3877 27.4588 64.5508 35.5294 64.5508 45.4447C64.5508 55.36 56.5027 63.4306 46.615 63.4306C45.9251 63.4306 45.2353 63.4306 44.5455 63.3153C44.0856 63.2 43.7406 63.3153 43.3957 63.4306Z" fill="#023932"/>
<path d="M56.5047 47C57.3022 47 58 46.3 58 45.5C58 44.7 57.3022 44 56.5047 44C55.7073 44 55.0095 44.7 55.0095 45.5C54.9098 46.3 55.6076 47 56.5047 47Z" fill="#023932"/>
<path d="M48 45.5C48 44.7 47.3 44 46.5 44C45.7 44 45 44.7 45 45.5C45 46.3 45.7 47 46.5 47C47.3 47 48 46.3 48 45.5Z" fill="#023932"/>
<path d="M36.4953 44C35.6978 44 35 44.7 35 45.5C35 46.3 35.6978 47 36.4953 47C37.2927 47 37.9905 46.3 37.9905 45.5C38.0902 44.7 37.3924 44 36.4953 44Z" fill="#023932"/>
</svg>
