<svg width="102" height="104" viewBox="0 0 102 104" fill="none" xmlns="http://www.w3.org/2000/svg">
<path d="M88.0702 72.8189H81.1808V65.9843C81.1866 65.7267 81.1411 65.4705 81.0469 65.2308C80.9527 64.991 80.8117 64.7723 80.6321 64.5876C80.4525 64.4029 80.2379 64.2558 80.0009 64.1549C79.7638 64.054 79.5091 64.0014 79.2514 64H73.0783C72.5465 63.9986 72.0353 64.2055 71.6542 64.5763C71.273 64.9472 71.0523 65.4526 71.0392 65.9843V72.8189H64.0391C63.5073 72.8175 62.9961 73.0244 62.615 73.3952C62.2338 73.7661 62.0131 74.2715 62 74.8032V80.9764C62.0131 81.508 62.2338 82.0134 62.615 82.3843C62.9961 82.7552 63.5073 82.9621 64.0391 82.9606H71.0392V90.0157C71.0523 90.5474 71.273 91.0528 71.6542 91.4237C72.0353 91.7945 72.5465 92.0014 73.0783 92H79.2514C79.5091 91.9986 79.7638 91.946 80.0009 91.8451C80.2379 91.7442 80.4525 91.5971 80.6321 91.4124C80.8117 91.2277 80.9527 91.009 81.0469 90.7692C81.1411 90.5295 81.1866 90.2733 81.1808 90.0157V82.9606H88.0702C88.3278 82.9593 88.5826 82.9066 88.8196 82.8057C89.0567 82.7048 89.2713 82.5577 89.4509 82.373C89.6305 82.1883 89.7715 81.9697 89.8657 81.7299C89.9599 81.4901 90.0054 81.2339 89.9995 80.9764V74.8032C90.0054 74.5456 89.9599 74.2894 89.8657 74.0496C89.7715 73.8099 89.6305 73.5912 89.4509 73.4065C89.2713 73.2218 89.0567 73.0747 88.8196 72.9738C88.5826 72.8729 88.3278 72.8203 88.0702 72.8189ZM86.9129 79.874H80.1333C79.6015 79.8726 79.0903 80.0795 78.7092 80.4503C78.328 80.8212 78.1073 81.3266 78.0942 81.8583V88.9134H74.1258V81.8583C74.1316 81.6007 74.0861 81.3446 73.9919 81.1048C73.8977 80.865 73.7567 80.6463 73.5771 80.4616C73.3975 80.2769 73.1829 80.1298 72.9459 80.0289C72.7088 79.928 72.4541 79.8754 72.1964 79.874H65.0866V75.9055H72.1964C72.4541 75.9041 72.7088 75.8515 72.9459 75.7506C73.1829 75.6497 73.3975 75.5026 73.5771 75.3179C73.7567 75.1332 73.8977 74.9146 73.9919 74.6748C74.0861 74.435 74.1316 74.1788 74.1258 73.9213V67.0866H78.0942V73.9213C78.1073 74.4529 78.328 74.9583 78.7092 75.3292C79.0903 75.7001 79.6015 75.9069 80.1333 75.9055H86.9129V79.874Z" fill="#c35f45"/>
<path d="M75.8626 51.3765C71.6453 51.3777 67.4908 52.4053 63.7537 54.3716C60.0166 56.3379 56.8079 59.1845 54.4013 62.6686C53.9901 62.5413 53.6011 62.4176 53.2343 62.2973L51.7525 58.0693C56.3326 54.6174 57.5872 49.2271 57.9296 46.6162C61.0096 45.7756 63.8382 42.1349 64.9715 37.3104C65.5822 34.7009 64.6879 32.2714 62.7455 31.2645C62.2072 30.9858 61.6105 30.8402 61.0051 30.8398C61.1054 30.0826 61.2101 29.1565 61.3185 28.0193C61.5719 25.3585 61.7329 22.6709 61.7329 21.9899C61.7329 21.5072 61.7425 21.0096 61.7525 20.4828C61.8334 16.2813 61.934 11.0528 57.3272 6.36533C53.1928 2.15882 47.3398 -0.160119 41.2711 0.00860641C35.2255 0.174919 29.5564 2.77009 25.7169 7.12865C25.5991 7.26279 25.4795 7.3978 25.3579 7.53368C23.0421 10.1368 19.8702 13.7019 20.0979 22.8318C20.1198 23.7254 20.9704 27.8209 21.8513 30.9422C21.3377 30.9935 20.8397 31.1483 20.3869 31.3973C18.5224 32.411 17.6674 34.7872 18.2593 37.3106C19.3935 42.1435 22.2312 45.7886 25.3182 46.6199C25.6873 49.1804 26.9791 54.5173 31.4423 57.9721L29.4875 62.0163C28.0916 62.4564 26.5184 62.8924 24.8947 63.3501C14.3998 66.3092 0 70.3615 0 83.5267V97.292C0 100.544 1.7289 104 4.83228 104H75.954C75.9682 104 75.9819 103.998 75.9959 103.998C82.9179 103.958 89.5418 101.159 94.4161 96.2147C99.2904 91.2704 102.018 84.5838 102 77.6203C101.982 70.6568 99.2213 63.9843 94.322 59.065C89.4227 54.1458 82.7847 51.381 75.8626 51.3765ZM27.6336 9.58143C27.7584 9.4413 27.8814 9.30234 28.0029 9.16455C31.284 5.43942 36.1505 3.22098 41.3549 3.07792C46.5843 2.9318 51.6138 4.9192 55.1562 8.52388C58.8565 12.2887 58.7734 16.6095 58.7001 20.4218C58.6897 20.9642 58.6799 21.4765 58.6799 21.9886C58.6799 22.3142 58.6471 22.9897 58.5913 23.8492C57.853 21.0883 56.8208 18.4219 55.3994 16.8627L55.2864 16.6354C55.1575 16.376 54.9582 16.1585 54.7115 16.0083C54.4648 15.858 54.1809 15.7811 53.8926 15.7865C53.6043 15.7918 53.3234 15.8792 53.0824 16.0385C52.8414 16.1978 52.6502 16.4225 52.5309 16.6866C50.0709 22.1299 47.6341 21.9107 43.597 21.5484C43.1283 21.5063 42.6515 21.4635 42.1669 21.4297C40.6308 21.32 40.0751 22.2231 39.9073 22.6146C39.4096 23.7774 40.1012 25.0331 41.3673 26.522C37.337 26.038 36.3154 23.0725 35.395 20.3974C34.7562 18.5408 34.0323 16.4362 31.9272 16.4362C30.9128 16.4162 29.9059 16.6148 28.9742 17.0186C28.0424 17.4225 27.2073 18.0222 26.525 18.7775C24.9605 20.467 24.079 22.8757 23.5882 25.2361C23.3896 24.419 23.2439 23.5897 23.152 22.7537C22.9529 14.8426 25.4395 12.0474 27.6336 9.58143ZM28.2327 45.2012C28.2143 44.8056 28.0457 44.4321 27.7616 44.1579C27.4776 43.8836 27.0997 43.7295 26.706 43.7272C26.6842 43.7272 26.6624 43.7272 26.6395 43.7272C24.4035 43.7272 22.0425 40.0578 21.2305 36.6041C20.9198 35.2789 21.3278 34.3764 21.8384 34.0986C22.4157 33.7853 23.0314 34.3372 23.2692 34.5892C23.4687 34.8007 23.724 34.9505 24.0051 35.0214C24.2862 35.0923 24.5816 35.0812 24.8566 34.9894C25.1317 34.8977 25.3752 34.7291 25.5585 34.5033C25.7419 34.2775 25.8575 34.0039 25.8921 33.7145C26.0425 33.451 26.1115 33.1485 26.0903 32.8454C25.928 30.4896 26.0918 23.7458 28.7599 20.8696C29.1372 20.4485 29.5971 20.1104 30.1105 19.8767C30.624 19.6429 31.18 19.5186 31.7435 19.5115C31.973 19.8447 32.2792 20.7344 32.5089 21.4025C33.6404 24.691 35.7464 30.8108 45.0794 29.4713C45.3656 29.4303 45.6342 29.3083 45.8542 29.1197C46.0742 28.9311 46.2364 28.6835 46.322 28.4058C46.4076 28.1281 46.4131 27.8317 46.3379 27.5509C46.2626 27.2702 46.1097 27.0167 45.8969 26.82C45.1568 26.1354 44.4542 25.4109 43.7924 24.6496C47.3817 24.9631 51.043 25.0812 54.069 20.2912C55.9813 23.8992 56.9769 31.0737 57.2208 33.9227C57.2535 34.3055 57.4277 34.6621 57.709 34.9221C57.9903 35.1821 58.3583 35.3265 58.7403 35.3269C58.7839 35.3269 58.8275 35.3249 58.8727 35.321C59.1492 35.2971 59.4141 35.1978 59.6387 35.0337C59.8633 34.8696 60.0391 34.647 60.1473 34.3898C60.4487 34.0901 60.9084 33.7667 61.3468 33.9933C61.9069 34.2836 62.3108 35.2738 61.9996 36.6043C61.188 40.0587 58.8273 43.7279 56.5907 43.7279H56.5525C56.2561 43.723 55.9647 43.8044 55.7132 43.9622C55.5 44.096 55.3229 44.2809 55.198 44.5003C55.073 44.7197 55.0041 44.9669 54.9972 45.2196C54.9318 46.4755 54.3405 52.8974 49.1387 56.1497C49.1302 56.1548 49.1224 56.1605 49.1141 56.1657C47.0888 57.4227 44.5658 58.0603 41.6151 58.0603C38.6724 58.0603 36.1551 57.4082 34.132 56.1216C29.0042 52.8645 28.318 46.4534 28.2325 45.2012H28.2327ZM31.9472 63.9515L34.0628 59.5756C36.2537 60.6081 38.7852 61.1316 41.6153 61.1316C44.4044 61.1316 46.9023 60.6344 49.07 59.6545L50.6024 64.0272C50.6791 64.2462 50.8042 64.445 50.9683 64.6084C51.1324 64.7718 51.3311 64.8956 51.5497 64.9706C51.93 65.1011 52.3327 65.2343 52.7577 65.3702C52.0095 66.7835 51.392 68.2629 50.913 69.7899C49.5001 71.4732 46.535 74.048 41.6153 74.048C39.9551 74.0661 38.3098 73.7319 36.7866 73.0672C35.2635 72.4025 33.8968 71.4222 32.7756 70.1904C31.1651 68.4526 30.2537 66.5155 29.9464 65.0889C30.3208 64.9733 30.6879 64.8574 31.0465 64.7402C31.2416 64.6764 31.4219 64.5736 31.5766 64.4381C31.7313 64.3026 31.8575 64.1371 31.9472 63.9515ZM3.05344 97.292V83.5267C3.05344 72.6908 15.6325 69.1517 25.7182 66.3079C26.1451 66.1875 26.5793 66.0688 26.9946 65.9509C28.0993 70.6195 33.0757 77.1189 41.6074 77.1189C44.5312 77.156 47.4021 76.3332 49.8674 74.7514C49.2842 79.9981 50.2829 85.2999 52.7339 89.9681C55.1848 94.6363 58.9747 98.4551 63.6112 100.928H4.83228C3.86042 100.928 3.05344 98.9736 3.05344 97.292ZM75.8626 100.928C71.2936 100.928 66.8272 99.5652 63.0283 97.0116C59.2293 94.4579 56.2683 90.8284 54.5199 86.5818C52.7714 82.3353 52.3139 77.6626 53.2053 73.1545C54.0967 68.6465 56.2969 64.5056 59.5277 61.2554C62.7585 58.0053 66.8747 55.7919 71.3559 54.8952C75.8372 53.9985 80.4821 54.4587 84.7033 56.2176C88.9245 57.9766 92.5325 60.9552 95.0709 64.777C97.6093 68.5987 98.9642 73.0919 98.9643 77.6882C98.9575 83.8498 96.5214 89.757 92.1904 94.1139C87.8595 98.4707 81.9875 100.921 75.8626 100.928Z" fill="#c35f45"/>
</svg>
