<svg width="100" height="81" viewBox="0 0 100 81" fill="none" xmlns="http://www.w3.org/2000/svg">
<path d="M99.25 74.0563V74.0519V6.9481C99.25 3.51817 96.4396 0.75 93.0867 0.75H6.9133C3.49987 0.75 0.75 3.57908 0.75 6.9481V74.0519C0.75 77.4803 3.50144 80.25 6.9133 80.25H93.0293C96.4419 80.25 99.1902 77.4804 99.25 74.0563ZM3.54643 6.9481C3.54643 5.11874 5.04594 3.55994 6.9133 3.55994H93.0867C94.8992 3.55994 96.4536 5.12134 96.4536 6.9481V74.0519C96.4536 75.9338 94.9018 77.4401 93.0867 77.4401H6.9133C5.04338 77.4401 3.54643 75.9364 3.54643 74.0519V6.9481Z" fill="#c35f45" stroke="#c35f45" stroke-width="0.5"/>
<path d="M77.5287 72.8001H90.4461C91.1516 72.8001 91.8443 72.175 91.8443 71.3951V59.0369C91.8443 58.592 91.6715 58.2408 91.3998 58.0039C91.133 57.7713 90.7851 57.6608 90.4461 57.6608C90.1071 57.6608 89.7592 57.7713 89.4924 58.0039C89.2207 58.2408 89.0479 58.592 89.0479 59.0369V69.9901H77.5287C77.0849 69.9901 76.7351 70.1646 76.4997 70.4379C76.2687 70.706 76.1592 71.0552 76.1592 71.3951C76.1592 71.7351 76.2687 72.0842 76.4997 72.3523C76.7351 72.6256 77.0849 72.8001 77.5287 72.8001ZM9.55446 72.8001H22.4719C22.9156 72.8001 23.2654 72.6256 23.5009 72.3523C23.7319 72.0842 23.8414 71.7351 23.8414 71.3951C23.8414 71.0552 23.7319 70.706 23.5009 70.4379C23.2654 70.1646 22.9156 69.9901 22.4719 69.9901H10.9527V59.0369C10.9527 58.592 10.7799 58.2408 10.5081 58.0039C10.2413 57.7713 9.89349 57.6608 9.55446 57.6608C9.21544 57.6608 8.86758 57.7713 8.60079 58.0039C8.32904 58.2408 8.15625 58.592 8.15625 59.0369V71.3951C8.15625 72.167 8.78349 72.8001 9.55446 72.8001ZM89.0479 21.9624C89.0479 22.7343 89.6751 23.3673 90.4461 23.3673C91.1516 23.3673 91.8443 22.7422 91.8443 21.9624V9.60419C91.8443 8.82433 91.1516 8.19922 90.4461 8.19922H77.5287C77.0849 8.19922 76.7351 8.37368 76.4997 8.64696C76.2687 8.91508 76.1592 9.26425 76.1592 9.60419C76.1592 9.94413 76.2687 10.2933 76.4997 10.5614C76.7351 10.8347 77.0849 11.0092 77.5287 11.0092H89.0479V21.9624ZM8.15625 21.9624C8.15625 22.7343 8.78349 23.3673 9.55446 23.3673C10.3254 23.3673 10.9527 22.7343 10.9527 21.9624V11.0092H22.4719C22.9156 11.0092 23.2654 10.8347 23.5009 10.5614C23.7319 10.2933 23.8414 9.94413 23.8414 9.60419C23.8414 9.26425 23.7319 8.91508 23.5009 8.64696C23.2654 8.37368 22.9156 8.19922 22.4719 8.19922H9.55446C8.78349 8.19922 8.15625 8.83227 8.15625 9.60419V21.9624Z" fill="#c35f45" stroke="#c35f45" stroke-width="0.5"/>
<path d="M11.85 34.6849H87.8617C88.3055 34.6849 88.6553 34.5105 88.8907 34.2372C89.1217 33.9691 89.2312 33.6199 89.2312 33.28C89.2312 32.94 89.1217 32.5909 88.8907 32.3227C88.6553 32.0495 88.3055 31.875 87.8617 31.875H11.85C11.4062 31.875 11.0564 32.0495 10.8209 32.3227C10.5899 32.5909 10.4805 32.94 10.4805 33.28C10.4805 33.6199 10.5899 33.9691 10.8209 34.2372C11.0564 34.5105 11.4062 34.6849 11.85 34.6849Z" fill="#c35f45" stroke="#c35f45" stroke-width="0.5"/>
<path d="M11.85 49.1224H87.8617C88.3055 49.1224 88.6553 48.948 88.8907 48.6747C89.1217 48.4066 89.2312 48.0574 89.2312 47.7175C89.2312 47.3775 89.1217 47.0284 88.8907 46.7602C88.6553 46.487 88.3055 46.3125 87.8617 46.3125H11.85C11.4062 46.3125 11.0564 46.487 10.8209 46.7602C10.5899 47.0284 10.4805 47.3775 10.4805 47.7175C10.4805 48.0574 10.5899 48.4066 10.8209 48.6747C11.0564 48.948 11.4062 49.1224 11.85 49.1224Z" fill="#c35f45" stroke="#c35f45" stroke-width="0.5"/>
<path d="M58.9692 64.0784L58.9694 64.0783C60.0987 63.3857 61.6381 61.7339 62.9992 59.519C64.3564 57.3103 65.518 54.571 65.914 51.7256C65.914 51.7256 65.914 51.7255 65.914 51.7255L66.1616 51.76L58.9692 64.0784ZM58.9692 64.0784C58.4964 64.3691 58.1267 64.4046 57.8313 64.3119M58.9692 64.0784L57.8313 64.3119M57.8313 64.3119C57.5264 64.2161 57.248 63.9675 56.9989 63.5848M57.8313 64.3119L56.9989 63.5848M56.9989 63.5848C56.501 62.8201 56.1922 61.6326 56.0203 60.5754M56.9989 63.5848L56.0203 60.5754M56.0203 60.5754V50.5473C56.0203 45.1195 53.0567 42.2287 49.9743 42.198C46.8864 42.1673 43.9234 45.0064 43.9234 50.5473V60.6922C43.7824 61.6171 43.5317 62.4371 43.2237 63.0704C42.9101 63.7155 42.5543 64.1316 42.2264 64.2978C42.0455 64.3827 41.804 64.3904 41.4904 64.2882C41.1752 64.1855 40.81 63.9783 40.4093 63.6701C39.6087 63.0543 38.7067 62.0667 37.8325 60.8335C36.0839 58.3668 34.4821 54.9679 34.0297 51.7256C33.7441 49.6571 33.6621 48.2045 33.6292 47.0491C33.6196 46.7136 33.6142 46.4006 33.609 46.1031C33.5965 45.3826 33.5856 44.7535 33.5212 44.1192C33.3368 42.3015 32.7151 40.4184 30.4456 35.9394L56.0203 60.5754ZM46.7174 61.0342L46.7198 61.0171V60.9997V50.5473C46.7198 48.6181 47.1502 47.2135 47.7708 46.3028C48.3897 45.3944 49.1922 44.9807 49.9677 44.9935C50.7449 45.0063 51.5512 45.4485 52.1724 46.367C52.7942 47.2864 53.2239 48.6776 53.2239 50.5473V60.711C53.2239 61.3321 53.5223 62.9298 54.2556 64.3756C54.9872 65.818 56.2004 67.1978 58.0667 67.1978C59.2235 67.1978 60.4082 66.6334 61.5347 65.7249C62.6643 64.8139 63.7587 63.5384 64.7405 62.0699C66.7027 59.1347 68.2402 55.3895 68.7056 52.1419L68.7058 52.14C68.9942 50.0079 69.0774 48.5298 69.1072 47.3794C69.1173 46.9895 69.1213 46.6412 69.125 46.3201C69.1323 45.6855 69.1384 45.1568 69.1878 44.6222C69.3338 43.0425 69.8585 41.4484 72.0108 37.2049L72.011 37.2046C76.3745 28.5716 75.3998 21.2747 70.9735 17.2224C66.5741 13.1947 58.8753 12.4781 49.9722 16.7181C41.1256 12.478 33.4272 13.1803 29.0207 17.2005C24.587 21.2454 23.5979 28.5425 27.9899 37.2043C30.1132 41.447 30.6388 43.0565 30.7918 44.6448C30.8441 45.1877 30.853 45.7242 30.8636 46.3682C30.8689 46.6835 30.8745 47.0246 30.8859 47.4047C30.9202 48.5522 31.0069 50.0228 31.2953 52.1402L31.2954 52.1407C31.7314 55.2985 32.9653 58.3767 34.4937 60.9123C36.0195 63.4436 37.8533 65.4579 39.5076 66.4682L39.5087 66.4689C40.6239 67.142 41.6252 67.3406 42.5095 67.1822C43.3915 67.0242 44.1204 66.5175 44.7059 65.8494C45.8696 64.5212 46.5128 62.5042 46.7174 61.0342Z" fill="#c35f45" stroke="#c35f45" stroke-width="0.5"/>
<path d="M40.4393 20.0977C36.3873 20.0977 33.6165 22.6877 32.2597 25.255C31.5822 26.5369 31.2437 27.8371 31.2846 28.8361C31.305 29.3349 31.4212 29.7825 31.6625 30.1119C31.9119 30.4524 32.2809 30.6459 32.7463 30.6459C33.5172 30.6459 34.1445 30.0129 34.1445 29.2409C34.1445 25.7395 36.9619 22.9076 40.4393 22.9076C40.8831 22.9076 41.2329 22.7331 41.4683 22.4599C41.6993 22.1917 41.8088 21.8426 41.8088 21.5026C41.8088 21.1627 41.6993 20.8135 41.4683 20.5454C41.2329 20.2721 40.8831 20.0977 40.4393 20.0977Z" fill="#c35f45" stroke="#c35f45" stroke-width="0.5"/>
<path d="M65.8545 29.2409C65.8545 30.0129 66.4818 30.6459 67.2528 30.6459C67.7128 30.6459 68.0767 30.4508 68.3214 30.1099C68.5578 29.7806 68.6709 29.3334 68.6894 28.8351C68.7264 27.8368 68.3882 26.537 67.7106 25.255C66.3535 22.6872 63.5826 20.0977 59.5023 20.0977C59.0585 20.0977 58.7088 20.2721 58.4733 20.5454C58.2423 20.8135 58.1328 21.1627 58.1328 21.5026C58.1328 21.8426 58.2423 22.1917 58.4733 22.4599C58.7088 22.7331 59.0585 22.9076 59.5023 22.9076C63.0386 22.9076 65.8545 25.7409 65.8545 29.2409Z" fill="#c35f45" stroke="#c35f45" stroke-width="0.5"/>
</svg>
