<svg width="96" height="101" viewBox="0 0 96 101" fill="none" xmlns="http://www.w3.org/2000/svg">
<path fill-rule="evenodd" clip-rule="evenodd" d="M55.8935 59.9998C56.1653 59.9998 56.4388 60.003 56.7127 60.0094C62.5387 60.1442 68.2676 61.6814 73.1052 63.1672C75.6813 63.9585 78.2751 64.8197 80.7813 65.6526C84.1771 66.7797 87.6873 67.9453 91.1797 68.9459C91.6695 69.0861 92.0779 69.0032 92.3902 68.6999C92.7584 68.3429 92.9269 67.7462 92.8035 67.2485C92.6978 66.8254 92.3969 66.5394 91.905 66.3992C88.388 65.3921 84.8756 64.2248 81.4777 63.0957C78.9917 62.2699 76.4201 61.4162 73.8776 60.6352C68.8699 59.0961 62.9202 57.5041 56.7735 57.3618C54.3324 57.3043 51.9359 57.4833 49.6452 57.8908C41.5152 59.3373 33.4841 61.5804 26.6993 63.5838C26.5221 63.6361 26.3558 63.6863 26.1941 63.735C24.712 64.1807 23.6429 64.5037 21.7451 64.3041C15.969 63.6945 12.2452 58.6076 10.5406 55.6294C8.16051 51.4713 6.56112 46.2645 5.78843 40.152C5.72328 39.6374 5.48522 39.2905 5.08088 39.1204C4.61412 38.9231 4.00293 39.0012 3.59881 39.3097C3.24891 39.576 3.10471 39.972 3.16987 40.4854C3.99222 46.9556 5.69867 52.4942 8.24981 56.9476C10.2059 60.3641 14.5248 66.2058 21.4688 66.938C23.7778 67.1814 24.9835 66.8336 27.1757 66.2021L27.4543 66.1222C34.1605 64.1412 42.1036 61.9225 50.1078 60.4984C51.9696 60.1672 53.9123 60.0001 55.8935 59.9998ZM91.618 71.1723C91.2809 71.1723 90.9371 71.1237 90.589 71.0241C87.052 70.0112 83.519 68.8385 80.1032 67.7044C77.6083 66.8754 75.0276 66.0183 72.4719 65.2338C67.7758 63.7911 62.2263 62.2991 56.6632 62.1703C54.541 62.1215 52.4615 62.2747 50.4851 62.6266C42.5845 64.0318 34.7124 66.2318 28.0559 68.1977L27.7707 68.2792C25.4801 68.9388 23.9685 69.3745 21.2442 69.0877C15.3895 68.4701 10.1116 64.5411 6.37911 58.0237C3.68652 53.3214 1.88735 47.5128 1.03173 40.7581C0.870224 39.4794 1.33038 38.3243 2.29397 37.5889C3.31406 36.8115 4.73508 36.6306 5.91645 37.1273C7.03267 37.5969 7.76482 38.6008 7.92633 39.8802C8.66577 45.7079 10.1724 50.6446 12.4092 54.5532C13.9095 57.1737 17.1479 61.6458 21.9697 62.1543C23.4365 62.3085 24.1954 62.0801 25.5742 61.6649C25.7382 61.6149 25.9111 61.5635 26.0909 61.5103C32.9317 59.4905 41.0346 57.2278 49.2702 55.7625C51.7002 55.3302 54.2424 55.1409 56.8229 55.2007C63.2325 55.3494 69.3613 56.9866 74.5111 58.5684C77.0762 59.3565 79.6585 60.2143 82.1536 61.044C85.5314 62.1655 89.0236 63.3262 92.498 64.3207C93.7286 64.6727 94.6024 65.5487 94.8942 66.7233C95.2068 67.9723 94.8134 69.3578 93.8903 70.2531C93.2664 70.8567 92.4709 71.1725 91.618 71.1723Z" fill="#023932" stroke="#023932" stroke-width="0.5"/>
<path fill-rule="evenodd" clip-rule="evenodd" d="M35.3905 75.2729C34.5082 75.2729 33.6275 75.0416 32.8145 74.588C31.4899 73.8458 30.5058 72.5876 30.1194 71.1356L28.9563 66.7827C28.8016 66.2068 29.1426 65.6141 29.7176 65.4595C30.2928 65.3051 30.8832 65.6475 31.0381 66.2239L32.2015 70.5761C32.4396 71.4672 33.0457 72.2416 33.8656 72.7005C34.6139 73.1177 35.4511 73.2207 36.2236 72.9884L59.4908 66.0088C60.3353 65.7548 60.8471 63.4829 60.4519 61.7431C60.3196 61.1612 60.6831 60.5818 61.2624 60.4489C61.8447 60.3155 62.4215 60.6802 62.5538 61.2619C63.0978 63.6496 62.5495 67.3473 60.1082 68.0795L36.8418 75.0589C36.3652 75.2019 35.8778 75.2729 35.3905 75.2729ZM35.3748 80.0864C33.6521 80.0864 31.9386 79.6329 30.3711 78.7415C27.9392 77.358 26.1557 75.0342 25.4819 72.3666L24.3907 68.0552C24.2447 67.4768 24.5925 66.8891 25.1698 66.7428C25.747 66.5964 26.3332 66.946 26.4812 67.5247L27.5708 71.8351C28.1029 73.9348 29.511 75.7669 31.4357 76.8613C33.3535 77.9522 35.5433 78.213 37.6004 77.5966L60.8674 70.6167C63.2347 69.906 64.8917 67.6076 65.2984 64.4679C65.3817 63.8243 65.4084 63.1636 65.3792 62.5032C65.3501 61.9069 65.8102 61.4012 66.4055 61.3736C66.9943 61.3444 67.5037 61.8068 67.5328 62.4033C67.5688 63.1901 67.5351 63.9785 67.4363 64.747C66.918 68.7564 64.6919 71.7255 61.485 72.6874L38.2182 79.6669C37.284 79.9476 36.327 80.0867 35.3748 80.0864Z" fill="#023932" stroke="#023932" stroke-width="0.5"/>
<path fill-rule="evenodd" clip-rule="evenodd" d="M66.7289 99.9999H16.5482C13.4376 99.9999 10.9062 97.4626 10.9062 94.3439C10.9065 91.2254 13.4373 88.6881 16.5479 88.6881L37.7598 88.6876C38.1978 88.6876 38.5391 88.5186 38.8063 88.1699C39.0737 87.8209 39.1478 87.4453 39.0354 87.0209L36.8659 78.911C36.7133 78.3343 37.0545 77.7424 37.6295 77.5875C38.2044 77.4327 38.7951 77.7753 38.95 78.3517L41.1175 86.4612C41.4025 87.5323 41.1891 88.6063 40.5177 89.4856C39.8441 90.3651 38.8646 90.8497 37.7598 90.8497L16.5482 90.8495C14.6255 90.8495 13.0624 92.4173 13.0624 94.3439C13.0626 96.2705 14.6255 97.8385 16.5479 97.8385L66.7289 97.8383C71.6541 97.8383 75.6582 93.8216 75.6582 88.8843C75.6584 83.9465 71.6539 79.9302 66.7286 79.9302L64.939 79.9298C63.3442 79.9298 61.9945 78.892 61.5813 77.3466L60.1331 71.9315C59.9805 71.3547 60.3213 70.7625 60.8965 70.6079C61.4717 70.4528 62.0619 70.7954 62.2168 71.3722L63.6638 76.7869C63.8228 77.3831 64.3235 77.7684 64.9388 77.7684L66.7289 77.768C72.8421 77.768 77.8143 82.7551 77.8143 88.8843C77.8145 95.0135 72.8419 100 66.7289 99.9999Z" fill="#023932" stroke="#023932" stroke-width="0.5"/>
<path fill-rule="evenodd" clip-rule="evenodd" d="M74.0405 60.6357C73.4457 60.6357 72.9626 60.1522 72.9626 59.5552L72.9628 14.6314C72.9628 10.9591 69.9822 7.97124 66.3192 7.97124H59.1959C56.8395 7.97124 54.6365 9.25312 53.4417 11.3163C53.1433 11.8324 52.4849 12.0087 51.9685 11.7091C51.4546 11.4095 51.2789 10.7483 51.5776 10.2317C53.1565 7.5042 56.0739 5.80987 59.1955 5.80987L66.3194 5.80964C71.1729 5.80964 75.1185 9.76743 75.1185 14.6317L75.1189 59.5552C75.1189 60.152 74.6378 60.6359 74.0405 60.6357ZM78.84 62.1656C78.2427 62.1656 77.7618 61.6821 77.7618 61.0851L77.7623 14.6314C77.7623 8.3065 72.6279 3.1616 66.3192 3.1616L59.1959 3.16114C55.8133 3.16114 52.6196 4.66273 50.4299 7.28062C50.0463 7.73761 49.3677 7.79813 48.9119 7.41445C48.454 7.03032 48.3952 6.34907 48.777 5.89186C51.3783 2.78272 55.1755 1 59.1955 1H66.3194C73.8182 1 79.9177 7.11505 79.9177 14.6317V61.0851C79.9177 61.6819 79.435 62.166 78.84 62.1656Z" fill="#023932" stroke="#023932" stroke-width="0.5"/>
<path fill-rule="evenodd" clip-rule="evenodd" d="M34.4886 8.49939L44.2806 25.5028L49.9558 22.2176C54.0543 19.8457 53.3826 14.3589 51.0244 10.2641C48.6666 6.16971 44.2621 2.8427 40.1635 5.21441L34.4886 8.49939ZM43.8849 28.0602C43.7929 28.0602 43.6985 28.0481 43.6065 28.0234C43.3307 27.9492 43.0944 27.7681 42.953 27.5196L32.0807 8.64442C31.9393 8.39617 31.901 8.10133 31.973 7.82454C32.0475 7.54752 32.229 7.3116 32.476 7.16841L39.0861 3.34239C41.5474 1.91731 44.2801 1.89242 46.9841 3.27C49.266 4.43153 51.3636 6.53192 52.8907 9.18339C54.4181 11.8349 55.1838 14.7063 55.0466 17.2682C54.8831 20.3056 53.4971 22.6645 51.0335 24.0896L44.4241 27.9152C44.2603 28.0109 44.0735 28.0604 43.8849 28.0602Z" fill="#023932" stroke="#023932" stroke-width="0.5"/>
<path fill-rule="evenodd" clip-rule="evenodd" d="M4.61962 17.24L7.6202 28.4641L10.5126 27.687C12.5944 27.1277 12.9268 24.0121 12.1835 21.2234C11.4379 18.4344 9.59409 15.9031 7.51222 16.4629L4.61962 17.24ZM6.85661 30.8687C6.67027 30.8687 6.48348 30.8196 6.31741 30.7239C6.07047 30.5805 5.89074 30.3446 5.81648 30.0676L2.25733 16.755C2.18307 16.4786 2.22316 16.1836 2.36462 15.9355C2.50837 15.6871 2.74414 15.506 3.02046 15.4317L6.95525 14.3746C10.5647 13.4056 13.2726 16.9555 14.2654 20.6641C15.2561 24.3723 14.6786 28.8053 11.0695 29.775L7.13498 30.8313C7.04523 30.8562 6.95069 30.8689 6.85661 30.8687Z" fill="#023932" stroke="#023932" stroke-width="0.5"/>
<path fill-rule="evenodd" clip-rule="evenodd" d="M4.18032 39.0346C3.78714 39.0346 3.40763 38.8183 3.21901 38.4426C0.452149 32.9746 0.777675 27.6212 4.18465 22.5297C4.51473 22.0344 5.18401 21.9017 5.68039 22.2344C6.17471 22.5667 6.30479 23.2382 5.97448 23.734C2.9944 28.1889 2.72035 32.6804 5.14141 37.465C5.41136 37.9971 5.19745 38.6477 4.66759 38.9177C4.51291 38.9972 4.34411 39.0348 4.18032 39.0346Z" fill="#023932" stroke="#023932" stroke-width="0.5"/>
<path fill-rule="evenodd" clip-rule="evenodd" d="M56.7635 57.3611C56.1682 57.3611 55.6853 56.8774 55.6853 56.2807L55.6855 48.0995C55.6855 47.5027 56.1682 47.019 56.7632 47.019C57.3587 47.019 57.8414 47.5027 57.8414 48.0997L57.8416 56.2805C57.8416 56.8772 57.3585 57.3614 56.7635 57.3611ZM49.6465 57.8738C49.0513 57.8738 48.5684 57.3901 48.5684 56.7936L48.5686 48.0995C48.5686 47.5027 49.0511 47.019 49.6463 47.019C50.2418 47.019 50.7243 47.5027 50.7243 48.0997L50.7245 56.7932C50.7245 57.3899 50.2413 57.8741 49.6465 57.8738Z" fill="#023932" stroke="#023932" stroke-width="0.5"/>
<path fill-rule="evenodd" clip-rule="evenodd" d="M33.9585 43.6922C33.0425 43.6922 32.2985 44.439 32.2985 45.3559C32.2985 46.2728 33.042 47.0192 33.9582 47.0192H56.9512C57.8654 47.0192 58.6107 46.2728 58.6107 45.3559C58.6112 44.4385 57.8652 43.6926 56.951 43.6926L33.9585 43.6922ZM56.9512 49.1801H33.9585C31.8538 49.1801 30.1426 47.465 30.1426 45.3559C30.1428 43.2464 31.8538 41.5312 33.9582 41.5312H56.9512C59.0559 41.5312 60.7669 43.2468 60.7669 45.3559C60.7669 47.465 59.0554 49.1805 56.9512 49.1801Z" fill="#023932" stroke="#023932" stroke-width="0.5"/>
</svg>
