<svg width="438" height="438" viewBox="0 0 438 438" fill="none" xmlns="http://www.w3.org/2000/svg">
<g opacity="0.5">
<path d="M65.3152 238.21C66.2988 238.21 67.2824 237.834 68.0354 237.089L83.4037 221.72L77.971 216.287L69.1573 225.093V161.368H146.306C147.182 163.843 148.819 166.002 151.163 167.408L213.066 204.554C213.727 204.953 214.449 205.199 215.156 205.453V225.093L206.35 216.287L200.918 221.72L216.286 237.089C217.031 237.834 218.015 238.21 218.998 238.21C219.982 238.21 220.966 237.834 221.719 237.089L237.087 221.72L231.654 216.287L222.841 225.093V205.453C223.547 205.199 224.27 204.953 224.923 204.554L286.842 167.408C289.186 166.002 290.822 163.843 291.691 161.368H368.84V225.093L360.034 216.287L354.601 221.72L369.969 237.089C370.715 237.834 371.698 238.21 372.682 238.21C373.665 238.21 374.649 237.834 375.402 237.089L390.77 221.72L385.338 216.287L376.524 225.093V157.526C376.524 155.405 374.803 153.684 372.682 153.684H291.691C290.815 151.21 289.178 149.051 286.834 147.644L224.931 110.499C221.265 108.301 216.716 108.301 213.066 110.499L151.147 147.644C148.804 149.051 147.167 151.21 146.299 153.684H65.3152C63.1944 153.684 61.4731 155.405 61.4731 157.526V225.093L52.6671 216.287L47.2344 221.72L62.6027 237.089C63.3481 237.834 64.3316 238.21 65.3152 238.21ZM155.112 154.23L217.024 117.084C217.631 116.715 218.322 116.539 219.006 116.539C219.69 116.539 220.374 116.715 220.989 117.084L282.892 154.23C284.575 155.236 284.752 156.873 284.752 157.526C284.752 158.179 284.575 159.808 282.9 160.823L220.981 197.968C219.767 198.706 218.261 198.706 217.024 197.968L155.12 160.823C153.437 159.816 153.26 158.179 153.26 157.526C153.26 156.873 153.437 155.244 155.112 154.23Z" fill="#83B899"/>
<path d="M172.893 69.1579H215.156V86.7778L206.35 77.9717L200.917 83.4044L216.286 98.7728C217.031 99.5182 218.015 99.8947 218.998 99.8947C219.982 99.8947 220.965 99.5182 221.718 98.7728L237.087 83.4044L231.654 77.9717L222.84 86.7778V69.1579H265.103C284.168 69.1579 299.682 53.6435 299.682 34.5789C299.682 15.5144 284.168 0 265.103 0H172.893C153.829 0 138.314 15.5144 138.314 34.5789C138.314 53.6435 153.829 69.1579 172.893 69.1579ZM172.893 7.68421H265.103C279.934 7.68421 291.998 19.7484 291.998 34.5789C291.998 49.4095 279.934 61.4737 265.103 61.4737H172.893C158.063 61.4737 145.999 49.4095 145.999 34.5789C145.999 19.7484 158.063 7.68421 172.893 7.68421Z" fill="#83B899"/>
<path d="M265.103 368.842H172.893C153.829 368.842 138.314 384.357 138.314 403.421C138.314 422.486 153.829 438 172.893 438H265.103C284.168 438 299.682 422.486 299.682 403.421C299.682 384.357 284.168 368.842 265.103 368.842ZM265.103 430.316H172.893C158.063 430.316 145.999 418.252 145.999 403.421C145.999 388.591 158.063 376.526 172.893 376.526H265.103C279.934 376.526 291.998 388.591 291.998 403.421C291.998 418.252 279.934 430.316 265.103 430.316Z" fill="#83B899"/>
<path d="M265.104 330.421C275.7 330.421 284.314 321.799 284.314 311.21V265.105C284.314 254.516 275.7 245.895 265.104 245.895H172.894C162.298 245.895 153.684 254.516 153.684 265.105V311.21C153.684 321.799 162.298 330.421 172.894 330.421H215.157V348.041L206.351 339.235L200.918 344.668L216.286 360.036C217.032 360.781 218.015 361.158 218.999 361.158C219.983 361.158 220.966 360.781 221.719 360.036L237.088 344.668L231.655 339.235L222.841 348.041V330.421H265.104ZM161.368 311.21V265.105C161.368 258.75 166.539 253.579 172.894 253.579H265.104C271.459 253.579 276.63 258.75 276.63 265.105V311.21C276.63 317.565 271.459 322.737 265.104 322.737H172.894C166.539 322.737 161.368 317.565 161.368 311.21Z" fill="#83B899"/>
<path d="M418.79 245.895H326.58C315.983 245.895 307.369 254.516 307.369 265.105V311.21C307.369 321.799 315.983 330.421 326.58 330.421H418.79C429.386 330.421 438 321.799 438 311.21V265.105C438 254.516 429.386 245.895 418.79 245.895ZM430.316 311.21C430.316 317.565 425.144 322.737 418.79 322.737H326.58C320.225 322.737 315.053 317.565 315.053 311.21V265.105C315.053 258.75 320.225 253.579 326.58 253.579H418.79C425.144 253.579 430.316 258.75 430.316 265.105V311.21Z" fill="#83B899"/>
<path d="M111.42 245.895H19.2104C8.61395 245.895 0 254.516 0 265.105V311.21C0 321.799 8.61395 330.421 19.2104 330.421H111.42C122.017 330.421 130.631 321.799 130.631 311.21V265.105C130.631 254.516 122.017 245.895 111.42 245.895ZM122.947 311.21C122.947 317.565 117.775 322.737 111.42 322.737H19.2104C12.8556 322.737 7.68416 317.565 7.68416 311.21V265.105C7.68416 258.75 12.8556 253.579 19.2104 253.579H111.42C117.775 253.579 122.947 258.75 122.947 265.105V311.21Z" fill="#83B899"/>
<path d="M180.58 30.7369H257.422V38.4211H180.58V30.7369Z" fill="#83B899"/>
<path d="M180.58 153.684H257.422V161.368H180.58V153.684Z" fill="#83B899"/>
<path d="M26.8926 284.316H103.734V292H26.8926V284.316Z" fill="#83B899"/>
<path d="M180.58 284.316H257.422V292H180.58V284.316Z" fill="#83B899"/>
<path d="M334.262 284.316H411.103V292H334.262V284.316Z" fill="#83B899"/>
<path d="M180.58 399.579H257.422V407.263H180.58V399.579Z" fill="#83B899"/>
</g>
</svg>
