<svg width="100" height="100" viewBox="0 0 100 100" fill="none" xmlns="http://www.w3.org/2000/svg">
<path d="M81.0811 87.1103L77.3452 75.9187C76.0396 72.0115 72.7088 69.1274 68.6485 68.3894L57.8637 66.4302V65.5956C59.7405 64.508 61.3736 63.0531 62.6743 61.3307H65.9325C68.6017 61.3307 70.7739 59.1619 70.7739 56.497V37.1623C70.7739 25.613 61.3623 16.2163 49.7948 16.2163C38.2272 16.2163 28.8156 25.613 28.8156 37.1623V48.4408C28.8156 51.5473 31.0281 54.1462 33.962 54.752C34.8673 59.3827 37.7656 63.3012 41.7259 65.5956V66.4302L30.9394 68.3894C26.8807 69.1274 23.5483 72.0115 22.2443 75.9187L21.5988 77.8538L16.1023 72.3659C15.4729 71.7376 15.4729 70.7144 16.1023 70.0861L22.4767 63.7233L10.5122 51.7777L3.30825 58.9702C1.17483 61.1002 0 63.9328 0 66.9458C0 69.9588 1.17483 72.7897 3.30825 74.9197L25.1185 96.6955C27.2519 98.8255 30.0889 100 33.1067 100C36.1244 100 38.9598 98.8255 41.0432 96.7438L48.9039 89.5529L46.4526 87.1103H81.0811ZM67.5463 56.497C67.5463 57.3864 66.8217 58.1082 65.9325 58.1082H64.5754C65.0434 57.0432 65.3984 55.9202 65.6275 54.752C66.3182 54.6086 66.9541 54.3347 67.5463 53.9899V56.497ZM65.9325 51.2154V45.6663C66.8927 46.2254 67.5463 47.2534 67.5463 48.4408C67.5463 49.6283 66.8927 50.6563 65.9325 51.2154ZM33.657 51.2154C32.6968 50.6563 32.0432 49.6283 32.0432 48.4408C32.0432 47.2534 32.6968 46.2254 33.657 45.6663V51.2154ZM33.657 40.3847V42.2247C33.0825 42.3746 32.5435 42.6001 32.0432 42.8918V37.1623C32.0432 27.3902 40.0072 19.4388 49.7948 19.4388C59.5823 19.4388 67.5463 27.3902 67.5463 37.1623V42.8918C67.0461 42.6001 66.507 42.373 65.9325 42.2247V40.3847H64.3188C59.5468 40.3847 55.0605 38.5286 51.6845 35.1595L49.7948 33.2728L47.905 35.1595C44.529 38.5286 40.0427 40.3847 35.2707 40.3847H33.657ZM36.8845 51.6633V43.5459C41.7307 43.1818 46.2493 41.1855 49.7948 37.8196C53.3402 41.1855 57.8588 43.1834 62.705 43.5459V51.6633C62.705 54.0125 62.0627 56.2102 60.9589 58.1082H49.7948V61.3307H58.3058C56.0304 63.3302 53.0562 64.5531 49.7948 64.5531C42.6764 64.5531 36.8845 58.7704 36.8845 51.6633ZM54.6361 67.0328V67.1085L49.7948 71.9422L44.9534 67.1085V67.0328C46.4833 67.5129 48.1084 67.7756 49.7948 67.7756C51.4811 67.7756 53.1062 67.5129 54.6361 67.0328ZM25.304 76.937C26.2352 74.1464 28.6155 72.0856 31.5155 71.5571L42.7958 69.5108L49.7948 76.4987L56.7921 69.5125L68.0708 71.5587C70.9708 72.0872 73.3511 74.1463 74.2822 76.9386L76.6045 83.8878H43.2251L36.9394 77.6121L29.955 83.9201C29.3466 84.5307 28.2831 84.5307 27.6731 83.9201L24.1486 80.4011L25.304 76.937ZM10.5105 56.3342L17.9113 63.7233L16.1588 65.4731L8.75798 58.084L10.5105 56.3342ZM38.8081 94.4204C37.2847 95.9382 35.2578 96.7776 33.1034 96.7776C30.949 96.7776 28.9221 95.9382 27.3971 94.4172L5.5869 72.6431C4.06349 71.1221 3.22433 69.0984 3.22433 66.9474C3.22433 64.7948 4.06349 62.7711 5.5869 61.2501L6.47448 60.3639L13.8753 67.753L13.8172 67.811C11.9307 69.6961 11.9307 72.7623 13.8172 74.6474L25.3896 86.2015C26.3046 87.1135 27.5198 87.6178 28.814 87.6178C30.1083 87.6178 31.3234 87.1151 32.1787 86.2579L32.2998 86.15L39.7345 93.5729L38.8081 94.4204ZM42.1164 91.3913L34.6979 83.9845L36.8297 82.0607L44.2353 89.4546L42.1164 91.3913Z" fill="#023932"/>
<path d="M95.1359 0H72.4332C69.7511 0 67.5684 2.17932 67.5684 4.85734V17.8102C67.5684 20.4882 69.7511 22.6676 72.4332 22.6676H76.7646L75.0878 32.4324L90.7365 22.6676H95.1359C97.8181 22.6676 100.001 20.4882 100.001 17.8102V4.85734C100.001 2.17932 97.8181 0 95.1359 0ZM96.7576 17.8102C96.7576 18.7024 96.0294 19.4293 95.1359 19.4293H89.8057L79.5067 25.8556L80.6111 19.4293H72.4332C71.5397 19.4293 70.8116 18.7024 70.8116 17.8102V4.85734C70.8116 3.96521 71.5397 3.23822 72.4332 3.23822H95.1359C96.0294 3.23822 96.7576 3.96521 96.7576 4.85734V17.8102Z" fill="#023932"/>
<path d="M93.2431 6.08105H74.3242V9.45943H93.2431V6.08105Z" fill="#023932"/>
<path d="M87.1621 12.8379H74.3242V16.2163H87.1621V12.8379Z" fill="#023932"/>
<path d="M93.2437 12.8379H90.541V16.2163H93.2437V12.8379Z" fill="#023932"/>
<path d="M50.0558 4.72974C28.8603 4.72974 10.6026 19.4118 5.8561 39.8915L2.78205 34.7598L0 36.4314L5.70199 45.946L15.2031 40.2359L13.5339 37.4499L9.13778 40.0913C13.7351 21.3563 30.5588 7.97869 50.0558 7.97869C54.3173 7.97869 58.522 8.61223 62.5532 9.86308L63.5135 6.76033C59.1709 5.41202 54.6434 4.72974 50.0558 4.72974Z" fill="#023932"/>
<path d="M99.3235 35.4292L89.7302 29.7297L83.9746 39.2282L86.7836 40.8967L89.65 36.1669C91.1585 40.5368 91.93 45.1077 91.93 49.7921C91.93 59.4349 88.5558 68.862 82.4316 76.3353L84.9753 78.3784C91.5729 70.3295 95.2058 60.1759 95.2058 49.7921C95.2058 44.832 94.3983 39.9887 92.8243 35.3513L97.6381 38.21L99.3235 35.4292Z" fill="#023932"/>
</svg>
