<svg width="84" height="99" viewBox="0 0 84 99" fill="none" xmlns="http://www.w3.org/2000/svg">
<path d="M65.4405 46.331V37.0639C75.6744 37.0627 84 28.7497 84 18.5318C83.9998 8.31344 75.6731 0 65.4381 0C57.6858 0 51.0293 4.77034 48.2558 11.5247C43.8752 11.355 39.7096 12.9712 36.6398 16.0828C35.5969 17.1381 34.3624 18.5309 32.7271 18.5272C31.0834 18.5235 29.8519 17.1466 28.8009 16.083C25.7671 13.0072 21.762 11.3492 17.5424 11.429C13.5319 11.4998 9.57841 13.0956 6.40981 15.9225C4.56397 17.572 3.10488 19.8463 2.05791 22.0672C1.60241 23.0334 2.01782 24.1852 2.98558 24.64C3.95334 25.0944 5.10721 24.6799 5.56252 23.7138C6.42976 21.8744 7.59642 20.2113 9.03091 18.7704C13.5267 14.7902 20.7664 13.5134 25.9826 18.7378C27.6207 20.7042 30.0797 22.3948 32.7267 22.3944C35.3697 22.394 37.8219 20.7009 39.457 18.7383C41.5523 16.6429 44.2244 15.4876 47.1445 15.3826C46.9661 16.4213 46.8763 17.4782 46.8763 18.5322C46.8763 27.1639 53.0994 34.8724 61.5667 36.6596V44.3978H3.87335V39.6667C3.87335 38.5989 3.0063 37.7331 1.93668 37.7331C0.86705 37.7331 0 38.5989 0 39.6667V46.3313C0 47.3991 0.86705 48.2649 1.93668 48.2649H17.8827V56.5646L17.4907 56.7358C15.0114 57.6739 13.7126 60.0275 13.7126 62.5854C13.7126 65.137 15.4345 67.4464 17.8827 68.1799V71.0182C17.8827 73.7681 18.1995 77.5972 18.8092 80.4904L18.7048 80.538C16.5104 81.4077 15.0406 83.5642 15.0406 85.9253C15.0406 89.0807 17.6801 91.7212 20.8458 91.7212C21.4814 91.7212 22.1195 91.6156 22.7348 91.4043L22.7486 91.4474C24.1707 95.9649 28.3119 99 33.053 99C37.6786 99 41.8893 95.9488 43.3221 91.5598C43.3221 91.5598 46.9129 80.5592 46.9526 80.4316L49.3662 79.3359C51.5667 78.4684 53.0405 76.3106 53.0405 73.9446C53.0519 71.2051 51.1063 68.7717 48.4091 68.2154V55.9969L49.1098 55.6814C52.0119 54.5419 53.5303 51.1953 52.4723 48.2653H63.5038C64.5734 48.2645 65.4405 47.3989 65.4405 46.331ZM36.9078 48.2645L21.7562 54.8745V48.2645H36.9078ZM21.756 71.0176V68.0002L44.5356 57.7408V68.7551L22.431 78.838C21.9896 76.355 21.756 73.2455 21.756 71.0176ZM42.173 82.6009L39.6393 90.3608C38.7207 93.1753 36.0189 95.1323 33.053 95.1323C30.0121 95.1323 27.3561 93.1853 26.4432 90.2851L26.2931 89.8105L42.173 82.6009ZM49.167 73.8886C49.1805 74.814 48.6092 75.4306 47.8123 75.7926L21.4868 87.744C20.2487 88.181 18.9142 87.2324 18.9142 85.9249C18.9142 85.1318 19.4125 84.408 20.1542 84.1242C20.1918 84.1099 46.5908 72.0704 46.5908 72.0704C47.8306 71.6305 49.167 72.5807 49.167 73.8886ZM47.6726 52.0896C47.6362 52.1033 47.6004 52.1182 47.5649 52.1342L20.222 64.4479C18.9548 64.8961 17.5862 63.9233 17.5862 62.585C17.5862 61.4922 17.9607 60.7505 18.9932 60.3001L46.3348 48.3726C47.6006 47.9513 48.9475 48.9094 48.9475 50.2436C48.9473 51.0582 48.4351 51.7999 47.6726 52.0896ZM65.4381 3.86716C73.5373 3.86716 80.1265 10.4456 80.1265 18.532C80.1265 26.6185 73.5373 33.1969 65.4381 33.1969C57.473 33.1969 50.7955 26.5605 50.7519 18.6136C50.7097 10.5997 57.4089 3.86716 65.4381 3.86716Z" fill="#023932"/>
<path d="M61.0047 25.7066C61.3678 26.0691 61.8605 26.2729 62.3741 26.2729C62.8877 26.2729 63.3804 26.0691 63.7435 25.7066L73.8311 15.6351C74.5874 14.88 74.5874 13.6557 73.8311 12.9004C73.0748 12.1456 71.8485 12.1456 71.092 12.9004L62.3739 21.6047L59.0405 18.2764C58.2842 17.5217 57.0579 17.5215 56.3017 18.2764C55.5454 19.0314 55.5452 20.2558 56.3017 21.011L61.0047 25.7066Z" fill="#023932"/>
<path d="M0.146972 31.9966C0.552512 32.9692 1.6998 33.4443 2.67627 33.0427C3.65197 32.6412 4.12568 31.4886 3.72401 30.5174C3.32138 29.5438 2.16886 29.0688 1.19471 29.4713C0.216886 29.8756 -0.25392 31.0213 0.146972 31.9966Z" fill="#023932"/>
</svg>
