<svg width="100" height="93" viewBox="0 0 100 93" fill="none" xmlns="http://www.w3.org/2000/svg">
<path d="M91.6667 34.8749H73.3333V8.30354C73.3276 3.71956 69.6004 0.00567626 65 0H8.33333C3.73291 0.00567626 0.00569662 3.71956 0 8.30354V44.8391C0.00569662 49.4231 3.73291 53.137 8.33333 53.1426H12.4097L20.2531 65.6474C20.6478 66.2759 21.4111 66.5686 22.1265 66.3642C22.841 66.1599 23.3333 65.5088 23.3333 64.7676V53.1426H30V73.0711C30.0057 77.6551 33.7329 81.369 38.3333 81.3747H66.6667V91.3389C66.6667 92.0614 67.1346 92.7004 67.8247 92.921C68.5148 93.1407 69.2692 92.8918 69.6899 92.3039L77.5252 81.3747H91.6667C96.2671 81.369 99.9943 77.6551 100 73.0711V43.1784C99.9943 38.5944 96.2671 34.8805 91.6667 34.8749ZM21.6667 49.8212C20.7463 49.8212 20 50.5648 20 51.4819V58.977L14.7469 50.6021C14.4417 50.1164 13.9079 49.8212 13.3333 49.8212H8.33333C5.5721 49.8212 3.33333 47.5905 3.33333 44.8391V8.30354C3.33333 5.55218 5.5721 3.32142 8.33333 3.32142H65C67.7612 3.32142 70 5.55218 70 8.30354V44.8391C70 47.5905 67.7612 49.8212 65 49.8212H21.6667ZM96.6667 73.0711C96.6667 75.8225 94.4279 78.0533 91.6667 78.0533H76.6667C76.1279 78.0533 75.6226 78.3127 75.3101 78.749L70 86.1557V79.714C70 78.7968 69.2537 78.0533 68.3333 78.0533H38.3333C35.5721 78.0533 33.3333 75.8225 33.3333 73.0711V53.1426H65C69.6004 53.137 73.3276 49.4231 73.3333 44.8391V38.1963H91.6667C94.4279 38.1963 96.6667 40.427 96.6667 43.1784V73.0711Z" fill="#023932"/>
<path d="M41.668 56.4641H88.3346V59.7855H41.668V56.4641Z" fill="#023932"/>
<path d="M41.668 66.4282H88.3346V69.7496H41.668V66.4282Z" fill="#023932"/>
<path d="M78.334 46.4998H88.334V49.8212H78.334V46.4998Z" fill="#023932"/>
<path d="M43.4029 10.1119C40.7751 9.6537 38.0725 10.2667 35.9029 11.8139C35.3658 12.191 34.6496 12.191 34.1125 11.8139C31.9446 10.2643 29.2411 9.65127 26.6125 10.1119C23.4696 10.6649 20.7792 12.68 19.3738 15.5359C17.9675 18.3919 18.0147 21.7449 19.4999 24.5603C21.1902 27.6231 22.2628 30.9858 22.6542 34.4597L23.0497 38.5271C23.4037 41.1796 25.7385 43.12 28.4208 42.9903C31.1039 42.8606 33.2393 40.7044 33.3345 38.0301V33.2142C33.3345 32.2971 34.0808 31.5535 35.0012 31.5535C35.9216 31.5535 36.6679 32.2971 36.6679 33.2142V38.0301C36.7167 40.7401 38.8659 42.9481 41.5832 43.0795C44.2997 43.2109 46.654 41.2209 46.9665 38.5288L47.3612 34.4613C47.7535 30.9875 48.8253 27.6239 50.5163 24.5603C52.0048 21.7449 52.0536 18.3903 50.6474 15.5335C49.2411 12.6767 46.5482 10.6616 43.4029 10.1119ZM47.5696 23.0091C45.6758 26.453 44.4787 30.2333 44.0442 34.1362L43.6478 38.2028C43.5152 39.1369 42.6908 39.8165 41.7452 39.7719C40.8004 39.7273 40.0443 38.9723 40.0012 38.0301V33.2142C40.0012 30.4628 37.7624 28.2321 35.0012 28.2321C32.24 28.2321 30.0012 30.4628 30.0012 33.2142V38.0301C29.9597 38.9731 29.2037 39.7281 28.258 39.7743C27.3124 39.8197 26.488 39.1402 26.3546 38.206L25.9582 34.1394C25.5237 30.2366 24.3266 26.4562 22.4328 23.0123C21.4416 21.1376 21.4091 18.9036 22.3449 17.0004C23.2816 15.098 25.0736 13.7552 27.1675 13.3871C28.9188 13.0749 30.7222 13.4811 32.1675 14.515C33.8627 15.7224 36.1397 15.7224 37.8349 14.515C39.2794 13.4811 41.0836 13.074 42.8349 13.3871C44.9271 13.7568 46.7159 15.1005 47.6509 17.002C48.5852 18.9036 48.5526 21.1351 47.563 23.0091H47.5696Z" fill="#023932"/>
<path d="M30.6872 15.7581L29.3184 18.7859C32.9536 20.3096 37.0503 20.3096 40.6855 18.7859L39.3151 15.7581C36.5457 16.8601 33.4565 16.8601 30.6872 15.7581Z" fill="#023932"/>
</svg>
