<svg width="120" height="95" viewBox="0 0 120 95" fill="none" xmlns="http://www.w3.org/2000/svg">
<path d="M29.0025 44.7107C24.7671 44.7107 20.6268 45.9634 17.1052 48.3103C13.5836 50.6572 10.8388 53.993 9.21799 57.8958C7.59717 61.7986 7.17309 66.0931 7.99938 70.2363C8.82566 74.3795 10.8652 78.1852 13.8601 81.1723C16.855 84.1594 20.6707 86.1936 24.8247 87.0177C28.9787 87.8418 33.2845 87.4189 37.1975 85.8023C41.1105 84.1857 44.455 81.4481 46.808 77.9357C49.1611 74.4232 50.4171 70.2938 50.4171 66.0694C50.4105 60.4067 48.1523 54.9778 44.1377 50.9737C40.1231 46.9696 34.68 44.7172 29.0025 44.7107ZM29.0025 84.9759C25.2533 84.9759 21.5884 83.8671 18.4711 81.7896C15.3538 79.7121 12.9242 76.7593 11.4895 73.3046C10.0547 69.8499 9.67933 66.0484 10.4108 62.3809C11.1422 58.7134 12.9476 55.3446 15.5986 52.7005C18.2496 50.0564 21.6273 48.2557 25.3044 47.5262C28.9814 46.7967 32.7929 47.1711 36.2566 48.6021C39.7204 50.0331 42.6809 52.4564 44.7638 55.5655C46.8467 58.6747 47.9584 62.33 47.9584 66.0694C47.9519 71.0817 45.9527 75.8869 42.3992 79.4311C38.8457 82.9754 34.0279 84.9694 29.0025 84.9759Z" fill="#023932" stroke="#023932" stroke-width="0.5"/>
<path d="M102.871 33.173L96.4789 39.561C95.5177 38.2862 94.3049 37.2214 92.9151 36.4324C91.5253 35.6433 89.9881 35.1467 88.3984 34.9732C86.8087 34.7997 85.2002 34.953 83.6723 35.4236C82.1443 35.8943 80.7292 36.6723 79.5144 37.7096C69.2989 29.0043 54.6332 41.8661 62.3041 53.1094C66.8648 59.7794 66.8034 63.6907 67.8237 71.501C67.949 72.4567 68.4183 73.3344 69.1443 73.9705C69.8703 74.6066 70.8034 74.9578 71.7698 74.9586H72.6672C73.7051 74.9553 74.6994 74.5418 75.4321 73.8087C76.1649 73.0755 76.5764 72.0825 76.5764 71.0473V63.0163C76.625 62.2608 76.9603 61.552 77.514 61.0341C78.0677 60.5162 78.7983 60.2279 79.5574 60.2279C80.3166 60.2279 81.0472 60.5162 81.6009 61.0341C82.1546 61.552 82.4898 62.2608 82.5385 63.0163V70.9737C82.5385 75.8781 89.7792 76.2705 90.4061 71.4274L91.0208 66.7192C92.8278 52.7661 102.355 51.9201 97.782 41.7557L104.642 34.9141C104.873 34.6799 105.002 34.3637 104.999 34.0349C104.997 33.706 104.864 33.3916 104.629 33.1607C104.394 32.9299 104.077 32.8014 103.748 32.8037C103.418 32.806 103.103 32.9389 102.871 33.173ZM88.5376 66.4004C87.9721 70.7653 88.1565 72.4328 86.4231 72.4328C86.0352 72.4328 85.6631 72.2791 85.3887 72.0055C85.1144 71.7318 84.9603 71.3607 84.9603 70.9737V63.0163C84.8938 61.622 84.2917 60.3067 83.2788 59.3434C82.2659 58.3801 80.9201 57.8427 79.5206 57.8427C78.121 57.8427 76.7752 58.3801 75.7623 59.3434C74.7495 60.3067 74.1473 61.622 74.0809 63.0163V70.9737C74.0825 71.1648 74.0462 71.3542 73.974 71.5312C73.9018 71.7081 73.7952 71.8691 73.6604 72.0047C73.5255 72.1404 73.3651 72.248 73.1883 72.3215C73.0115 72.395 72.8218 72.4328 72.6303 72.4328H71.7329C71.3626 72.4329 71.0049 72.2986 70.7267 72.0549C70.4484 71.8112 70.2686 71.4748 70.2208 71.1086C69.1513 62.9428 69.139 58.8476 64.3079 51.6994C58.3703 42.9696 69.5201 32.8052 77.6827 39.3526C74.3513 42.0009 71.8558 40.6522 72.1263 42.6753C72.172 42.9972 72.344 43.2878 72.6045 43.4833C72.865 43.6787 73.1926 43.763 73.5154 43.7175C76.1496 43.3391 78.5791 42.0865 80.4118 40.1618C81.3623 39.1673 82.5247 38.3985 83.813 37.9122C85.1014 37.4259 86.4828 37.2345 87.8553 37.3522C89.2278 37.47 90.5562 37.8937 91.7424 38.5922C92.9287 39.2907 93.9424 40.2462 94.7087 41.3879L89.9267 46.1452L85.5012 41.7312C85.266 41.5303 84.9635 41.4254 84.6541 41.4373C84.3447 41.4492 84.0512 41.5771 83.8323 41.7955C83.6134 42.0138 83.4851 42.3066 83.4732 42.6151C83.4612 42.9237 83.5664 43.2254 83.7678 43.46L89.0662 48.7445C89.2965 48.9729 89.6081 49.101 89.9328 49.101C90.2576 49.101 90.5692 48.9729 90.7995 48.7445L95.8519 43.7052C98.581 52.1163 90.4184 51.8956 88.5376 66.4004Z" fill="#023932" stroke="#023932" stroke-width="0.5"/>
<path d="M110.21 7.20408H106.105V5.46301C106.105 -0.434541 97.1552 -0.434541 97.1552 5.46301V7.20408H61.8863V5.46301C61.8863 4.27935 61.4148 3.14416 60.5757 2.30719C59.7365 1.47021 58.5983 1 57.4116 1C56.2248 1 55.0867 1.47021 54.2475 2.30719C53.4083 3.14416 52.9369 4.27935 52.9369 5.46301V7.20408H48.831C46.5009 7.20732 44.2671 8.13199 42.6194 9.77535C40.9718 11.4187 40.0447 13.6467 40.0414 15.9707V40.3947C35.6961 38.5359 30.9496 37.8048 26.2445 38.2694C21.5394 38.7341 17.0289 40.3793 13.1334 43.0519C9.23783 45.7244 6.08417 49.3372 3.96635 53.5534C1.84853 57.7697 0.835513 62.4521 1.02173 67.1642C1.20795 71.8763 2.58734 76.4647 5.03132 80.5016C7.47529 84.5385 10.9043 87.8925 14.9986 90.2509C19.093 92.6094 23.7194 93.8954 28.4465 93.9893C33.1737 94.0831 37.8477 92.9816 42.0329 90.7875C42.8524 91.7966 43.8888 92.6092 45.0654 93.1653C46.2421 93.7213 47.529 94.0065 48.831 93.9999H110.21C112.542 93.9999 114.777 93.0763 116.426 91.4322C118.074 89.7881 119 87.5583 119 85.2333V15.9707C118.997 13.6467 118.07 11.4187 116.422 9.77535C114.774 8.13199 112.541 7.20732 110.21 7.20408ZM103.646 5.46301V15.2718H99.6138V5.46301C99.6138 4.92971 99.8262 4.41826 100.204 4.04116C100.582 3.66406 101.095 3.45221 101.63 3.45221C102.165 3.45221 102.677 3.66406 103.055 4.04116C103.434 4.41826 103.646 4.92971 103.646 5.46301ZM55.3955 5.46301C55.3955 4.92971 55.6079 4.41826 55.986 4.04116C56.3641 3.66406 56.8769 3.45221 57.4116 3.45221C57.9463 3.45221 58.4591 3.66406 58.8372 4.04116C59.2152 4.41826 59.4276 4.92971 59.4276 5.46301V15.2718H55.3955V5.46301ZM42.5 28.1704H49.5809V47.1382C47.5307 44.9275 45.1405 43.0567 42.5 41.5963V28.1704ZM28.9776 91.5477C22.2068 91.5379 15.7162 88.8501 10.9297 84.0737C6.14313 79.2974 3.45138 72.8224 3.44488 66.0693C3.44488 43.6316 30.8339 31.8733 47.0608 48.0456C62.8451 63.7887 51.9289 91.5477 29.0022 91.5477H28.9776ZM97.2043 72.1139V80.1572H53.1827C55.8657 75.5699 57.183 70.3153 56.9805 65.0084C56.7781 59.7015 55.0642 54.5619 52.0395 50.1912V28.244H107.002V70.8756C99.0114 70.8756 97.2043 70.3974 97.2043 72.1139ZM105.158 73.34L99.663 78.551V73.34H105.158ZM116.541 85.2333C116.538 86.907 115.87 88.5112 114.683 89.6946C113.497 90.8781 111.889 91.5444 110.21 91.5477C43.9875 91.5477 46.7658 92.3201 44.1965 89.5246C47.0497 87.6777 49.5478 85.3356 51.5724 82.6094C101.605 82.6094 98.7778 82.8056 99.3556 82.2661L109.104 72.9845C109.337 72.7482 109.473 72.4332 109.485 72.1017V28.1704H116.541V85.2333ZM116.541 25.7182H42.5V15.9707C42.5033 14.297 43.1713 12.6928 44.3579 11.5093C45.5445 10.3258 47.1529 9.65952 48.831 9.65628H52.9369V15.2228C50.8348 15.2228 48.9662 14.855 48.9662 16.4489C48.9662 18.0428 49.9251 17.675 60.657 17.675C64.1851 17.675 65.8692 18.0306 65.8692 16.4489C65.8692 14.8672 64.2097 15.2228 61.8863 15.2228V9.65628H97.1552V15.2228C94.9547 15.2228 93.1722 14.8917 93.1722 16.4489C93.1722 18.006 93.7131 17.675 108.858 17.675C109.184 17.675 109.497 17.5458 109.727 17.3159C109.958 17.0859 110.088 16.7741 110.088 16.4489C110.088 16.1237 109.958 15.8118 109.727 15.5819C109.497 15.352 109.184 15.2228 108.858 15.2228H106.105V9.65628H110.21C111.889 9.65952 113.497 10.3258 114.683 11.5093C115.87 12.6928 116.538 14.297 116.541 15.9707V25.7182Z" fill="#023932" stroke="#023932" stroke-width="0.5"/>
<path d="M29.0043 50.3262C27.3324 50.3262 27.775 51.1354 27.775 64.8432H18.6043C18.2783 64.8432 17.9656 64.9724 17.7351 65.2023C17.5045 65.4323 17.375 65.7441 17.375 66.0693C17.375 66.3945 17.5045 66.7064 17.7351 66.9363C17.9656 67.1663 18.2783 67.2954 18.6043 67.2954H29.0043C29.3303 67.2954 29.643 67.1663 29.8735 66.9363C30.1041 66.7064 30.2336 66.3945 30.2336 66.0693C30.2336 51.025 30.6761 50.3262 29.0043 50.3262Z" fill="#023932" stroke="#023932" stroke-width="0.5"/>
</svg>
