<svg width="101" height="75" viewBox="0 0 101 75" fill="none" xmlns="http://www.w3.org/2000/svg">
<path d="M12.3929 73.1354H5.34579C3.49808 73.1354 2 71.6434 2 69.8027V59.2143C2 57.3735 3.49808 55.8815 5.34579 55.8815H26.3685C28.2164 55.8815 29.7142 57.3735 29.7142 59.2143V69.8027C29.7142 71.6434 28.2164 73.1354 26.3685 73.1354H18.6662" stroke="#023932" stroke-width="3" stroke-miterlimit="10" stroke-linecap="round" stroke-linejoin="round"/>
<path d="M57.4283 35.1766C57.4283 38.9882 54.3263 42.0783 50.4998 42.0783C46.6733 42.0783 43.5713 38.9882 43.5713 35.1766C43.5713 31.3649 46.6733 28.2748 50.4998 28.2748C54.3263 28.2748 57.4283 31.3649 57.4283 35.1766Z" stroke="#023932" stroke-width="3" stroke-miterlimit="10" stroke-linecap="round" stroke-linejoin="round"/>
<path d="M50.5 21.3734V28.275" stroke="#023932" stroke-width="3" stroke-miterlimit="10" stroke-linecap="round" stroke-linejoin="round"/>
<path d="M50.5 42.0783V55.8816" stroke="#023932" stroke-width="3" stroke-miterlimit="10" stroke-linecap="round" stroke-linejoin="round"/>
<path d="M15.8569 55.8815V48.9797H85.1429V55.8815" stroke="#023932" stroke-width="3" stroke-miterlimit="10" stroke-linecap="round" stroke-linejoin="round"/>
<path d="M95.6546 73.1354H74.6319C72.784 73.1354 71.2861 71.6434 71.2861 69.8027V59.2143C71.2861 57.3735 72.784 55.8815 74.6319 55.8815H95.6546C97.5023 55.8815 99.0004 57.3735 99.0004 59.2143V69.8027C99.0004 71.6434 97.5023 73.1354 95.6546 73.1354Z" stroke="#023932" stroke-width="3" stroke-miterlimit="10" stroke-linecap="round" stroke-linejoin="round"/>
<path d="M61.011 73.1354H39.9884C38.1404 73.1354 36.6426 71.6434 36.6426 69.8027V59.2143C36.6426 57.3735 38.1404 55.8815 39.9884 55.8815H61.011C62.859 55.8815 64.3568 57.3735 64.3568 59.2143V69.8027C64.3568 71.6434 62.859 73.1354 61.011 73.1354Z" stroke="#023932" stroke-width="3" stroke-miterlimit="10" stroke-linecap="round" stroke-linejoin="round"/>
<path d="M60.4812 19.2973H39.4586C37.6107 19.2973 36.1128 17.8053 36.1128 15.9645V5.37613C36.1128 3.53541 37.6107 2.04337 39.4586 2.04337H60.4812C62.3292 2.04337 63.827 3.53541 63.827 5.37613V15.9645C63.827 17.8053 62.3292 19.2973 60.4812 19.2973Z" stroke="#023932" stroke-width="3" stroke-miterlimit="10" stroke-linecap="round" stroke-linejoin="round"/>
</svg>
