<svg width="92" height="92" viewBox="0 0 92 92" fill="none" xmlns="http://www.w3.org/2000/svg">
<path d="M34.942 42.3989L30.2665 44.271C28.6688 44.9054 26.8594 44.1245 26.2249 42.527C25.8996 41.7078 25.9369 40.7891 26.3275 39.9989L27.358 37.938C27.9357 36.7828 27.709 35.3876 26.7955 34.4744L19.621 27.2999L21.5605 25.3604C22.1461 24.7747 22.1461 23.8252 21.5605 23.2394L16.621 18.3001L17.0605 17.8606C17.6348 17.2867 17.6481 16.3599 17.0905 15.7696L3.5905 1.47014C3.02163 0.867699 2.07231 0.840699 1.47006 1.40957C1.17025 1.6927 1.00019 2.08664 1 2.49895V21.999C1 22.4407 1.19481 22.8599 1.5325 23.145L6.0325 26.9489C6.628 27.4516 7.50944 27.4145 8.0605 26.8634L8.5 26.4194L13.4395 31.3589C14.0253 31.9445 14.9747 31.9445 15.5605 31.3589L17.5 29.4194L24.6745 36.5939L23.65 38.6489C22.1421 41.6666 23.3661 45.3352 26.3838 46.8429C27.9451 47.6231 29.7653 47.6979 31.3855 47.049L36.064 45.1784L34.942 42.3989ZM7.4395 23.2424L6.9145 23.7675L4 21.3029V6.27295L13.909 16.7729L13.4395 17.2424L7.4395 23.2424ZM14.5 28.1774L10.621 24.2985L14.5 20.4194L18.379 24.3029L14.5 28.1774Z" fill="#023932" stroke="#023932" stroke-width="0.5"/>
<path d="M90.0745 44.613C89.5139 44.3807 88.8685 44.5093 88.4395 44.9385L67.4395 65.9385C66.8539 66.5243 66.8539 67.4738 67.4395 68.0595L68.629 69.249L62.743 75.135C60.4148 73.7076 57.7308 72.9671 55 72.999C48.3835 72.999 43 77.0355 43 81.999C43 86.9625 48.3835 90.999 55 90.999C61.6165 90.999 67 86.9625 67 81.999C66.9702 80.175 66.2721 78.4255 65.038 77.082L70.75 71.37L71.9395 72.5595C72.5252 73.1451 73.4748 73.1451 74.0605 72.5595L90.5605 56.0595C90.8418 55.7783 91 55.3969 91 54.999V45.999C91.0002 45.3925 90.6349 44.8455 90.0745 44.613ZM55 87.999C50.122 87.999 46 85.251 46 81.999C46 78.747 50.122 75.999 55 75.999C59.878 75.999 64 78.747 64 81.999C64 85.251 59.878 87.999 55 87.999ZM88 54.378L73 69.378L70.621 66.999L88 49.62V54.378Z" fill="#023932" stroke="#023932" stroke-width="0.5"/>
<path d="M52.7187 51.69C52.0992 47.9796 48.5891 45.4736 44.8784 46.0933C42.0091 46.5724 39.7608 48.8207 39.2817 51.69L34.7502 78.879C34.4107 80.9128 32.4867 82.2862 30.4529 81.9469C28.8404 81.6776 27.5906 80.3908 27.3687 78.771L23.4867 50.2965C23.459 50.0835 23.3859 49.8787 23.2722 49.6965L22.4382 48.3615C19.898 44.3002 18.0669 39.8366 17.0232 35.1615L14.0938 35.8155C15.2131 40.8251 17.1768 45.6079 19.9002 49.959L20.5632 51.021L24.4032 79.176C24.9048 82.86 28.2978 85.44 31.9818 84.9384C34.9057 84.5404 37.2296 82.2847 37.7142 79.374L42.2457 52.185C42.5467 50.346 44.1369 48.9966 46.0002 48.999C47.8661 48.9937 49.4594 50.3438 49.7607 52.185L52.7712 70.2465L55.7292 69.7515L52.7187 51.69Z" fill="#023932" stroke="#023932" stroke-width="0.5"/>
<path d="M60.0753 6.99934C57.513 6.99934 54.9774 7.51984 52.6222 8.52897C48.3913 10.332 43.6082 10.332 39.3772 8.52897C31.9451 5.34372 23.3102 7.23259 17.8867 13.23L20.1127 15.249C23.1328 11.9111 27.4224 10.0044 31.9237 9.99897C34.08 9.99653 36.2141 10.4345 38.1952 11.286C43.1808 13.413 48.8186 13.413 53.8042 11.286C61.8881 7.82228 71.249 11.5676 74.7127 19.6515C75.5619 21.6333 75.9997 23.7669 75.9997 25.923C76.0023 33.8608 73.7713 41.6392 69.5617 48.369L68.7277 49.704C68.6141 49.8862 68.541 50.091 68.5132 50.304L67.2862 59.304L70.2577 59.709L71.4427 51.0285L72.1057 49.9665C76.6147 42.7578 79.0037 34.4257 78.9997 25.923C78.9995 15.4715 70.5268 6.99916 60.0753 6.99934Z" fill="#023932" stroke="#023932" stroke-width="0.5"/>
</svg>
