<svg width="96" height="101" viewBox="0 0 96 101" fill="none" xmlns="http://www.w3.org/2000/svg">
<path fill-rule="evenodd" clip-rule="evenodd" d="M55.8935 59.9324C56.1653 59.9324 56.4388 59.9356 56.7127 59.9419C62.5386 60.0754 68.2676 61.5982 73.1052 63.07C75.6813 63.8539 78.2751 64.7071 80.7813 65.5321C84.1771 66.6486 87.6873 67.8033 91.1797 68.7944C91.6695 68.9333 92.0779 68.8512 92.3902 68.5508C92.7584 68.1972 92.9269 67.606 92.8035 67.1131C92.6978 66.6939 92.3969 66.4106 91.905 66.2717C88.388 65.274 84.8756 64.1177 81.4777 62.9992C78.9917 62.1812 76.4201 61.3355 73.8776 60.5618C68.8699 59.0372 62.9202 57.4601 56.7735 57.3192C54.3324 57.2622 51.9359 57.4395 49.6452 57.8431C41.5152 59.2761 33.4841 61.4982 26.6993 63.4827C26.5221 63.5345 26.3558 63.5843 26.1941 63.6325C24.712 64.0741 23.6429 64.394 21.7451 64.1962C15.969 63.5924 12.2452 58.5533 10.5406 55.603C8.16051 51.4839 6.56112 46.326 5.78843 40.2709C5.72328 39.7612 5.48522 39.4175 5.08088 39.249C4.61412 39.0535 4.00293 39.1309 3.59881 39.4365C3.24891 39.7003 3.10471 40.0926 3.16987 40.6012C3.99222 47.0106 5.69867 52.4972 8.24981 56.9088C10.2059 60.2933 14.5248 66.0801 21.4688 66.8054C23.7778 67.0466 24.9835 66.702 27.1757 66.0765L27.4543 65.9973C34.1605 64.0349 42.1036 61.8371 50.1078 60.4263C51.9696 60.0982 53.9123 59.9326 55.8935 59.9324ZM91.618 71C91.2809 71 90.9371 70.9518 90.589 70.8532C87.052 69.8498 83.519 68.6881 80.1032 67.5646C77.6083 66.7434 75.0276 65.8944 72.4719 65.1172C67.7758 63.6881 62.2263 62.2101 56.6632 62.0825C54.541 62.0341 52.4615 62.1859 50.4851 62.5346C42.5845 63.9266 34.7124 66.1059 28.0559 68.0533L27.7707 68.1341C25.4801 68.7874 23.9685 69.2191 21.2442 68.9349C15.3895 68.3232 10.1116 64.4311 6.37911 57.9748C3.68652 53.3166 1.88735 47.5626 1.03173 40.8713C0.870224 39.6046 1.33038 38.4603 2.29397 37.7318C3.31406 36.9617 4.73508 36.7826 5.91645 37.2746C7.03267 37.7398 7.76482 38.7343 7.92633 40.0016C8.66577 45.7747 10.1724 50.665 12.4092 54.537C13.9095 57.1328 17.1479 61.5629 21.9697 62.0667C23.4365 62.2194 24.1954 61.9932 25.5742 61.5819C25.7382 61.5323 25.9111 61.4814 26.0909 61.4287C32.9317 59.4279 41.0346 57.1864 49.2702 55.7349C51.7002 55.3066 54.2424 55.1191 56.8229 55.1783C63.2325 55.3256 69.3613 56.9475 74.5111 58.5144C77.0762 59.2951 79.6585 60.1448 82.1536 60.9667C85.5314 62.0778 89.0236 63.2275 92.498 64.2128C93.7286 64.5614 94.6024 65.4292 94.8942 66.5927C95.2068 67.83 94.8134 69.2026 93.8903 70.0894C93.2664 70.6873 92.4709 71.0002 91.618 71Z" fill="#83B899" stroke="#83B899"/>
<path fill-rule="evenodd" clip-rule="evenodd" d="M34.9847 75.1045C34.1063 75.1045 33.2295 74.8692 32.42 74.4079C31.1012 73.653 30.1214 72.3735 29.7367 70.8967L28.5787 66.4697C28.4247 65.8839 28.7642 65.2812 29.3367 65.1239C29.9093 64.9669 30.4972 65.3151 30.6514 65.9013L31.8097 70.3277C32.0467 71.234 32.6502 72.0216 33.4665 72.4882C34.2115 72.9126 35.045 73.0173 35.8141 72.7811L58.9793 65.6825C59.82 65.4243 60.3297 63.1137 59.9362 61.3442C59.8044 60.7524 60.1664 60.1631 60.7431 60.028C61.3228 59.8923 61.8971 60.2633 62.0289 60.8548C62.5705 63.2832 62.0245 67.0439 59.5939 67.7885L36.4296 74.8868C35.9552 75.0322 35.4698 75.1045 34.9847 75.1045ZM34.969 80C33.254 80 31.548 79.5387 29.9873 78.6322C27.566 77.2251 25.7904 74.8618 25.1195 72.1486L24.0331 67.7639C23.8878 67.1756 24.2341 66.5779 24.8088 66.429C25.3835 66.2802 25.9671 66.6358 26.1145 67.2243L27.1993 71.6082C27.7291 73.7436 29.1309 75.6069 31.0472 76.7199C32.9566 77.8295 35.1369 78.0947 37.1849 77.4678L60.3498 70.369C62.7068 69.6462 64.3565 67.3086 64.7614 64.1154C64.8444 63.4609 64.8709 62.7889 64.8419 62.1172C64.8128 61.5108 65.271 60.9965 65.8636 60.9684C66.4499 60.9387 66.957 61.409 66.986 62.0157C67.0219 62.8159 66.9883 63.6177 66.8899 64.3993C66.3739 68.477 64.1576 71.4967 60.9647 72.475L37.7999 79.5733C36.8698 79.8588 35.9171 80.0002 34.969 80Z" fill="#83B899" stroke="#83B899"/>
<path fill-rule="evenodd" clip-rule="evenodd" d="M66.8993 100H16.6497C13.5348 100 11 97.4997 11 94.4265C11.0002 91.3535 13.5346 88.8532 16.6494 88.8532L37.8904 88.8528C38.3291 88.8528 38.6708 88.6862 38.9384 88.3426C39.2062 87.9987 39.2803 87.6285 39.1679 87.2104L36.9953 79.2188C36.8425 78.6505 37.1842 78.0672 37.7599 77.9146C38.3357 77.762 38.9272 78.0996 39.0823 78.6676L41.2528 86.6588C41.5382 87.7143 41.3244 88.7727 40.6522 89.6391C39.9777 90.5057 38.9968 90.9833 37.8904 90.9833L16.6497 90.9831C14.7244 90.9831 13.1591 92.528 13.1591 94.4265C13.1593 96.325 14.7244 97.8702 16.6494 97.8702L66.8993 97.8699C71.8314 97.8699 75.8409 93.9118 75.8409 89.0465C75.8411 84.1808 71.8311 80.2231 66.8991 80.2231L65.1071 80.2227C63.51 80.2227 62.1585 79.2001 61.7447 77.6772L60.2946 72.3411C60.1417 71.7727 60.483 71.1891 61.059 71.0368C61.6349 70.884 62.226 71.2215 62.3811 71.79L63.8301 77.1256C63.9893 77.7132 64.4907 78.0929 65.1068 78.0929L66.8993 78.0924C73.021 78.0924 78 83.0067 78 89.0465C78.0002 95.0863 73.0208 100 66.8993 100Z" fill="#83B899" stroke="#83B899"/>
<path fill-rule="evenodd" clip-rule="evenodd" d="M74.1962 60.4742C73.6089 60.4742 73.1317 59.9921 73.1317 59.3967L73.132 14.5945C73.132 10.9322 70.1887 7.95237 66.5714 7.95237H59.5372C57.2102 7.95237 55.0347 9.23078 53.8548 11.2884C53.5602 11.8031 52.91 11.9789 52.4001 11.6801C51.8926 11.3813 51.7191 10.7219 52.0141 10.2067C53.5732 7.4866 56.4542 5.79685 59.5367 5.79685L66.5717 5.79662C71.3645 5.79662 75.2607 9.7437 75.2607 14.5948L75.2611 59.3967C75.2611 59.9918 74.786 60.4745 74.1962 60.4742ZM78.9357 62C78.3459 62 77.871 61.5178 77.871 60.9225L77.8715 14.5945C77.8715 8.28672 72.8013 3.15575 66.5714 3.15575L59.5372 3.15529C56.1968 3.15529 53.043 4.65281 50.8807 7.26362C50.5019 7.71937 49.8318 7.77973 49.3817 7.39709C48.9295 7.014 48.8715 6.33459 49.2485 5.87862C51.8172 2.77789 55.567 1 59.5367 1H66.5717C73.9767 1 80 7.0985 80 14.5948V60.9225C80 61.5176 79.5233 62.0005 78.9357 62Z" fill="#83B899" stroke="#83B899"/>
<path fill-rule="evenodd" clip-rule="evenodd" d="M34.5373 8.29162L44.2765 25.4233L49.921 22.1133C53.9975 19.7235 53.3293 14.1953 50.9838 10.0696C48.6388 5.94436 44.2581 2.59225 40.1816 4.98185L34.5373 8.29162ZM43.8829 28C43.7914 28 43.6976 27.9878 43.606 27.963C43.3317 27.8882 43.0967 27.7057 42.956 27.4554L32.1425 8.43774C32.0018 8.18762 31.9637 7.89056 32.0353 7.61168C32.1094 7.33256 32.29 7.09487 32.5356 6.9506L39.11 3.09571C41.5581 1.65988 44.276 1.6348 46.9654 3.02277C49.2349 4.19307 51.3212 6.3093 52.8401 8.98078C54.3593 11.6522 55.1208 14.5453 54.9844 17.1266C54.8217 20.1869 53.4433 22.5636 50.9929 23.9995L44.4192 27.8539C44.2563 27.9503 44.0705 28.0002 43.8829 28Z" fill="#83B899" stroke="#83B899"/>
<path fill-rule="evenodd" clip-rule="evenodd" d="M4.30741 17.0897L7.19354 28.5457L9.97559 27.7525C11.978 27.1816 12.2977 24.0017 11.5828 21.1554C10.8656 18.3088 9.09213 15.7251 7.08968 16.2965L4.30741 17.0897ZM6.45908 31C6.27984 31 6.10017 30.9499 5.94044 30.8522C5.70292 30.7058 5.53005 30.465 5.45862 30.1823L2.03523 16.5946C1.9638 16.3125 2.00236 16.0114 2.13843 15.7582C2.27669 15.5046 2.50347 15.3198 2.76925 15.244L6.55395 14.165C10.0258 13.176 12.6303 16.7993 13.5852 20.5845C14.5381 24.3693 13.9827 28.894 10.5113 29.8837L6.72683 30.9618C6.6405 30.9872 6.54957 31.0002 6.45908 31Z" fill="#83B899" stroke="#83B899"/>
<path fill-rule="evenodd" clip-rule="evenodd" d="M3.93915 39C3.52921 39 3.13352 38.7835 2.93686 38.4075C0.0520693 32.9341 0.39147 27.5755 3.94366 22.4792C4.28781 21.9833 4.98562 21.8505 5.50315 22.1836C6.01855 22.5162 6.15416 23.1883 5.80978 23.6846C2.70268 28.1438 2.41695 32.6397 4.9412 37.4288C5.22265 37.9615 4.99963 38.6128 4.44718 38.883C4.28591 38.9625 4.10992 39.0002 3.93915 39Z" fill="#83B899" stroke="#83B899"/>
<path fill-rule="evenodd" clip-rule="evenodd" d="M56.9536 57.4804C56.3759 57.4804 55.9072 56.9903 55.9072 56.3855L55.9074 48.0949C55.9074 47.4902 56.3759 47 56.9534 47C57.5313 47 57.9998 47.4902 57.9998 48.0951L58 56.3853C58 56.99 57.5311 57.4807 56.9536 57.4804ZM50.0464 58C49.4687 58 49 57.5098 49 56.9053L49.0002 48.0949C49.0002 47.4902 49.4685 47 50.0462 47C50.6241 47 51.0924 47.4902 51.0924 48.0951L51.0926 56.9049C51.0926 57.5096 50.6237 58.0002 50.0464 58Z" fill="#83B899" stroke="#83B899"/>
<path fill-rule="evenodd" clip-rule="evenodd" d="M33.8627 44.2601C32.9355 44.2601 32.1823 45.0412 32.1823 46.0002C32.1823 46.9593 32.935 47.7399 33.8625 47.7399H57.1375C58.0629 47.7399 58.8174 46.9593 58.8174 46.0002C58.8179 45.0407 58.0627 44.2606 57.1373 44.2606L33.8627 44.2601ZM57.1375 50H33.8627C31.7322 50 30 48.2061 30 46.0002C30.0002 43.7939 31.7322 42 33.8625 42H57.1375C59.268 42 61 43.7943 61 46.0002C61 48.2061 59.2675 50.0005 57.1375 50Z" fill="#83B899" stroke="#83B899"/>
</svg>
