<svg width="120" height="95" viewBox="0 0 120 95" fill="none" xmlns="http://www.w3.org/2000/svg">
<path d="M29.5 45C25.2477 45 21.0909 46.261 17.5552 48.6234C14.0196 50.9859 11.2639 54.3437 9.6366 58.2723C8.00932 62.2009 7.58354 66.5238 8.41313 70.6944C9.24271 74.865 11.2904 78.696 14.2972 81.7028C17.304 84.7096 21.135 86.7573 25.3056 87.5869C29.4762 88.4165 33.7991 87.9907 37.7277 86.3634C41.6563 84.7361 45.0141 81.9804 47.3766 78.4448C49.739 74.9091 51 70.7523 51 66.5C50.9935 60.7998 48.7262 55.335 44.6956 51.3044C40.665 47.2738 35.2002 45.0065 29.5 45ZM29.5 85.5316C25.7359 85.5316 22.0564 84.4154 18.9266 82.3242C15.7969 80.233 13.3576 77.2606 11.9171 73.7831C10.4767 70.3055 10.0998 66.4789 10.8341 62.7871C11.5685 59.0954 13.381 55.7043 16.0427 53.0426C18.7043 50.381 22.0954 48.5685 25.7871 47.8341C29.4789 47.0998 33.3055 47.4767 36.7831 48.9171C40.2606 50.3576 43.233 52.7969 45.3242 55.9266C47.4154 59.0563 48.5316 62.7359 48.5316 66.5C48.525 71.5455 46.5178 76.3824 42.9501 79.9501C39.3824 83.5178 34.5455 85.525 29.5 85.5316Z" fill="#83B899" stroke="#83B899"/>
<path d="M102.864 33.3679L96.4478 39.7325C95.4831 38.4624 94.2657 37.4015 92.8707 36.6153C91.4758 35.8291 89.9329 35.3344 88.3373 35.1615C86.7417 34.9887 85.1272 35.1414 83.5936 35.6103C82.0599 36.0792 80.6396 36.8543 79.4203 37.8878C69.1668 29.2145 54.4466 42.0291 62.146 53.2311C66.7237 59.8766 66.662 63.7735 67.6861 71.5551C67.8118 72.5073 68.283 73.3818 69.0116 74.0155C69.7403 74.6493 70.6769 74.9992 71.6469 75H72.5476C73.5894 74.9968 74.5873 74.5848 75.3228 73.8543C76.0583 73.1239 76.4713 72.1345 76.4713 71.1031V63.1016C76.5202 62.3488 76.8567 61.6427 77.4124 61.1267C77.9682 60.6107 78.7015 60.3235 79.4635 60.3235C80.2254 60.3235 80.9587 60.6107 81.5145 61.1267C82.0703 61.6427 82.4068 62.3488 82.4556 63.1016V71.0298C82.4556 75.9162 89.7231 76.3071 90.3524 71.4818L90.9694 66.7909C92.7832 52.8891 102.346 52.0462 97.7557 41.9191L104.641 35.1026C104.873 34.8693 105.002 34.5542 105 34.2266C104.998 33.899 104.864 33.5857 104.628 33.3557C104.393 33.1257 104.074 32.9977 103.744 33C103.413 33.0023 103.096 33.1347 102.864 33.3679ZM88.4769 66.4732C87.9094 70.8221 88.0944 72.4835 86.3547 72.4835C85.9652 72.4835 85.5918 72.3304 85.3164 72.0577C85.0411 71.7851 84.8863 71.4154 84.8863 71.0298V63.1016C84.8196 61.7124 84.2153 60.402 83.1986 59.4422C82.182 58.4824 80.8312 57.947 79.4264 57.947C78.0217 57.947 76.6709 58.4824 75.6543 59.4422C74.6376 60.402 74.0333 61.7124 73.9665 63.1016V71.0298C73.9682 71.2201 73.9317 71.4089 73.8593 71.5852C73.7868 71.7615 73.6799 71.9218 73.5445 72.057C73.4091 72.1921 73.2481 72.2994 73.0706 72.3726C72.8932 72.4458 72.7028 72.4835 72.5106 72.4835H71.6098C71.2382 72.4836 70.8792 72.3498 70.5999 72.107C70.3206 71.8642 70.1401 71.5291 70.0922 71.1642C69.0187 63.0283 69.0064 58.9482 64.1572 51.8263C58.1976 43.1285 69.3889 33.0015 77.5818 39.5248C74.238 42.1634 71.7332 40.8197 72.0047 42.8353C72.0505 43.156 72.2232 43.4456 72.4847 43.6403C72.7461 43.835 73.075 43.919 73.399 43.8737C76.0429 43.4967 78.4815 42.2487 80.321 40.331C81.275 39.3402 82.4417 38.5742 83.7349 38.0897C85.028 37.6052 86.4146 37.4146 87.7922 37.5318C89.1697 37.6491 90.5031 38.0713 91.6937 38.7673C92.8844 39.4632 93.9018 40.4151 94.671 41.5526L89.8712 46.2924L85.4293 41.8947C85.1932 41.6946 84.8896 41.59 84.579 41.6019C84.2685 41.6137 83.9739 41.7412 83.7542 41.9587C83.5344 42.1763 83.4057 42.4679 83.3937 42.7754C83.3817 43.0828 83.4873 43.3834 83.6895 43.6171L89.0075 48.8822C89.2387 49.1098 89.5514 49.2375 89.8774 49.2375C90.2034 49.2375 90.5161 49.1098 90.7473 48.8822L95.8185 43.8615C98.5577 52.2416 90.3648 52.0217 88.4769 66.4732Z" fill="#83B899" stroke="#83B899"/>
<path d="M110.21 7.20408H106.105V5.46301C106.105 -0.434541 97.1552 -0.434541 97.1552 5.46301V7.20408H61.8863V5.46301C61.8863 4.27935 61.4148 3.14416 60.5757 2.30719C59.7365 1.47021 58.5983 1 57.4116 1C56.2248 1 55.0867 1.47021 54.2475 2.30719C53.4083 3.14416 52.9369 4.27935 52.9369 5.46301V7.20408H48.831C46.5009 7.20732 44.2671 8.13199 42.6194 9.77535C40.9718 11.4187 40.0447 13.6467 40.0414 15.9707V40.3947C35.6961 38.5359 30.9496 37.8048 26.2445 38.2694C21.5394 38.7341 17.0289 40.3794 13.1334 43.0519C9.23783 45.7244 6.08417 49.3372 3.96635 53.5534C1.84853 57.7697 0.835513 62.4521 1.02173 67.1642C1.20795 71.8763 2.58734 76.4647 5.03132 80.5016C7.47529 84.5385 10.9043 87.8925 14.9986 90.2509C19.093 92.6094 23.7194 93.8954 28.4465 93.9893C33.1737 94.0831 37.8477 92.9816 42.0329 90.7875C42.8524 91.7966 43.8888 92.6092 45.0654 93.1653C46.2421 93.7213 47.529 94.0065 48.831 93.9999H110.21C112.542 93.9999 114.777 93.0763 116.426 91.4322C118.074 89.7881 119 87.5583 119 85.2333V15.9707C118.997 13.6467 118.07 11.4187 116.422 9.77535C114.774 8.13199 112.541 7.20732 110.21 7.20408ZM103.646 5.46301V15.2718H99.6138V5.46301C99.6138 4.92971 99.8262 4.41826 100.204 4.04116C100.582 3.66406 101.095 3.45221 101.63 3.45221C102.165 3.45221 102.677 3.66406 103.055 4.04116C103.434 4.41826 103.646 4.92971 103.646 5.46301ZM55.3955 5.46301C55.3955 4.92971 55.6079 4.41826 55.986 4.04116C56.3641 3.66406 56.8769 3.45221 57.4116 3.45221C57.9463 3.45221 58.4591 3.66406 58.8371 4.04116C59.2152 4.41826 59.4276 4.92971 59.4276 5.46301V15.2718H55.3955V5.46301ZM42.5 28.1704H49.5809V47.1382C47.5307 44.9275 45.1405 43.0567 42.5 41.5963V28.1704ZM28.9776 91.5477C22.2068 91.5379 15.7162 88.8501 10.9297 84.0737C6.14313 79.2974 3.45138 72.8224 3.44487 66.0693C3.44487 43.6316 30.8339 31.8733 47.0608 48.0456C62.8451 63.7887 51.9289 91.5477 29.0022 91.5477H28.9776ZM97.2043 72.1139V80.1572H53.1827C55.8657 75.5699 57.183 70.3153 56.9805 65.0084C56.7781 59.7015 55.0642 54.5619 52.0395 50.1912V28.244H107.002V70.8756C99.0114 70.8756 97.2043 70.3974 97.2043 72.1139ZM105.158 73.34L99.663 78.551V73.34H105.158ZM116.541 85.2333C116.538 86.9069 115.87 88.5112 114.683 89.6946C113.497 90.8781 111.889 91.5444 110.21 91.5477C43.9875 91.5477 46.7658 92.3201 44.1965 89.5246C47.0497 87.6777 49.5478 85.3356 51.5724 82.6094C101.605 82.6094 98.7779 82.8056 99.3556 82.2661L109.104 72.9845C109.337 72.7482 109.473 72.4332 109.485 72.1017V28.1704H116.541V85.2333ZM116.541 25.7182H42.5V15.9707C42.5033 14.297 43.1713 12.6928 44.3579 11.5093C45.5445 10.3258 47.1529 9.65953 48.831 9.65628H52.9369V15.2228C50.8348 15.2228 48.9662 14.855 48.9662 16.4489C48.9662 18.0428 49.9251 17.675 60.657 17.675C64.1851 17.675 65.8692 18.0306 65.8692 16.4489C65.8692 14.8672 64.2097 15.2228 61.8863 15.2228V9.65628H97.1552V15.2228C94.9547 15.2228 93.1722 14.8917 93.1722 16.4489C93.1722 18.006 93.7131 17.675 108.858 17.675C109.184 17.675 109.497 17.5458 109.727 17.3159C109.958 17.0859 110.088 16.7741 110.088 16.4489C110.088 16.1237 109.958 15.8118 109.727 15.5819C109.497 15.352 109.184 15.2228 108.858 15.2228H106.105V9.65628H110.21C111.889 9.65953 113.497 10.3258 114.683 11.5093C115.87 12.6928 116.538 14.297 116.541 15.9707V25.7182Z" fill="#83B899" stroke="#83B899"/>
<path d="M28.7089 50C27.0256 50 27.4712 50.8107 27.4712 64.5434H18.2377C17.9095 64.5434 17.5946 64.6728 17.3625 64.9031C17.1304 65.1335 17 65.4459 17 65.7717C17 66.0975 17.1304 66.4099 17.3625 66.6402C17.5946 66.8706 17.9095 67 18.2377 67H28.7089C29.0371 67 29.352 66.8706 29.5841 66.6402C29.8162 66.4099 29.9466 66.0975 29.9466 65.7717C29.9466 50.7001 30.3922 50 28.7089 50Z" fill="#83B899" stroke="#83B899"/>
</svg>
