<svg width="100" height="100" viewBox="0 0 100 100" fill="none" xmlns="http://www.w3.org/2000/svg">
<path d="M81 87.0769L77.2678 75.8565C75.9636 71.9392 72.6361 69.0476 68.5799 68.3078L57.8058 66.3435V65.5067C59.6807 64.4163 61.3122 62.9576 62.6116 61.2308H65.8666C68.5331 61.2308 70.7031 59.0565 70.7031 56.3846V37C70.7031 25.4209 61.301 16 49.745 16C38.189 16 28.7868 25.4209 28.7868 37V48.3077C28.7868 51.4222 30.9971 54.0278 33.928 54.6352C34.8324 59.2778 37.7279 63.2064 41.6841 65.5067V66.3435L30.9084 68.3078C26.8538 69.0476 23.5247 71.9392 22.2221 75.8565L21.5772 77.7965L16.0862 72.2945C15.4574 71.6645 15.4574 70.6388 16.0862 70.0088L22.4542 63.6296L10.5016 51.6532L3.30494 58.8642C1.17366 60.9998 0 63.8396 0 66.8604C0 69.8812 1.17366 72.7194 3.30494 74.8549L25.0933 96.6868C27.2246 98.8224 30.0588 100 33.0736 100C36.0883 100 38.9209 98.8224 41.0022 96.7353L48.855 89.5258L46.4062 87.0769H81ZM67.4788 56.3846C67.4788 57.2763 66.7549 58 65.8666 58H64.5108C64.9783 56.9322 65.333 55.8063 65.5619 54.6352C66.2519 54.4914 66.8871 54.2168 67.4788 53.8711V56.3846ZM65.8666 51.0894V45.526C66.8258 46.0865 67.4788 47.1172 67.4788 48.3077C67.4788 49.4982 66.8258 50.5288 65.8666 51.0894ZM33.6233 51.0894C32.6641 50.5288 32.0111 49.4982 32.0111 48.3077C32.0111 47.1172 32.6641 46.0865 33.6233 45.526V51.0894ZM33.6233 40.2308V42.0755C33.0494 42.2258 32.5109 42.4519 32.0111 42.7443V37C32.0111 27.2027 39.9672 19.2308 49.745 19.2308C59.5227 19.2308 67.4788 27.2027 67.4788 37V42.7443C66.979 42.4519 66.4405 42.2242 65.8666 42.0755V40.2308H64.2544C59.4873 40.2308 55.0055 38.3698 51.6328 34.9921L49.745 33.1005L47.8571 34.9921C44.4845 38.3698 40.0026 40.2308 35.2355 40.2308H33.6233ZM36.8476 51.5385V43.4002C41.689 43.0351 46.203 41.0336 49.745 37.6591C53.2869 41.0336 57.801 43.0367 62.6423 43.4002V51.5385C62.6423 53.8937 62.0006 56.0971 60.8979 58H49.745V61.2308H58.2475C55.9744 63.2355 53.0031 64.4615 49.745 64.4615C42.6337 64.4615 36.8476 58.6639 36.8476 51.5385ZM54.5815 66.9476V67.0235L49.745 71.8697L44.9085 67.0235V66.9476C46.4368 67.429 48.0602 67.6923 49.745 67.6923C51.4297 67.6923 53.0531 67.429 54.5815 66.9476ZM25.2787 76.8774C26.209 74.0795 28.5869 72.0135 31.484 71.4836L42.753 69.4321L49.745 76.438L56.7353 69.4337L68.0027 71.4852C70.8998 72.0151 73.2777 74.0795 74.208 76.879L76.5279 83.8462H43.1818L36.9025 77.5542L29.925 83.8785C29.3172 84.4907 28.2548 84.4907 27.6454 83.8785L24.1244 80.3505L25.2787 76.8774ZM10.5 56.2215L17.8934 63.6296L16.1426 65.3839L8.74922 57.9758L10.5 56.2215ZM38.7693 94.4059C37.2475 95.9276 35.2226 96.7692 33.0703 96.7692C30.9181 96.7692 28.8932 95.9276 27.3697 94.4027L5.58131 72.5724C4.05943 71.0475 3.22111 69.0185 3.22111 66.862C3.22111 64.7038 4.05943 62.6749 5.58131 61.15L6.468 60.2615L13.8614 67.6697L13.8034 67.7278C11.9187 69.6178 11.9187 72.6919 13.8034 74.5819L25.3642 86.1658C26.2783 87.0802 27.4922 87.5858 28.7852 87.5858C30.0782 87.5858 31.2921 87.0818 32.1466 86.2224L32.2675 86.1142L39.6947 93.5562L38.7693 94.4059ZM42.0743 91.369L34.6632 83.9431L36.7928 82.0143L44.191 89.4273L42.0743 91.369Z" fill="#83B899"/>
<path d="M95.2 0H72.8C70.1536 0 68 2.15027 68 4.79257V17.5728C68 20.2151 70.1536 22.3653 72.8 22.3653H77.0736L75.4192 32L90.8592 22.3653H95.2C97.8464 22.3653 100 20.2151 100 17.5728V4.79257C100 2.15027 97.8464 0 95.2 0ZM96.8 17.5728C96.8 18.453 96.0816 19.1703 95.2 19.1703H89.9408L79.7792 25.5109L80.8688 19.1703H72.8C71.9184 19.1703 71.2 18.453 71.2 17.5728V4.79257C71.2 3.91234 71.9184 3.19505 72.8 3.19505H95.2C96.0816 3.19505 96.8 3.91234 96.8 4.79257V17.5728Z" fill="#83B899"/>
<path d="M93 6H74V9H93V6Z" fill="#83B899"/>
<path d="M87 13H74V16H87V13Z" fill="#83B899"/>
<path d="M94 13H91V16H94V13Z" fill="#83B899"/>
<path d="M50.4392 5C29.0814 5 10.6838 19.605 5.90095 39.9773L2.80336 34.8725L0 36.5354L5.74566 46L15.3196 40.3199L13.6376 37.5486L9.20778 40.1761C13.8403 21.5393 30.7928 8.23191 50.4392 8.23191C54.7334 8.23191 58.9703 8.86213 63.0323 10.1064L64 7.01994C59.6241 5.6787 55.0619 5 50.4392 5Z" fill="#83B899"/>
<path d="M99 35.7406L89.3453 30L83.5528 39.5671L86.3798 41.2476L89.2645 36.4837C90.7827 40.8851 91.5591 45.489 91.5591 50.2072C91.5591 59.9197 88.1634 69.4149 82 76.9422L84.56 79C91.1997 70.8929 94.8559 60.666 94.8559 50.2072C94.8559 45.2113 94.0432 40.3331 92.4591 35.6622L97.3038 38.5415L99 35.7406Z" fill="#83B899"/>
</svg>
