<svg width="57" height="71" viewBox="0 0 57 71" fill="none" xmlns="http://www.w3.org/2000/svg">
<path d="M48.175 70.4875H8.225C6.04436 70.485 3.95374 69.6178 2.41179 68.0761C0.869847 66.5345 0.0024879 64.4442 0 62.2639V8.22311C0.0024879 6.04284 0.869847 3.95258 2.41179 2.4109C3.95374 0.869211 6.04436 0.0019992 8.225 -0.000488281H48.175C50.3556 0.0019992 52.4463 0.869211 53.9882 2.4109C55.5302 3.95258 56.3975 6.04284 56.4 8.22311V62.2639C56.3975 64.4442 55.5302 66.5345 53.9882 68.0761C52.4463 69.6178 50.3556 70.485 48.175 70.4875ZM8.225 2.34911C6.66743 2.35098 5.17418 2.97044 4.07281 4.07163C2.97144 5.17281 2.35187 6.6658 2.35 8.22311V62.2639C2.35187 63.8212 2.97144 65.3142 4.07281 66.4154C5.17418 67.5166 6.66743 68.1361 8.225 68.1379H48.175C49.7326 68.1361 51.2258 67.5166 52.3272 66.4154C53.4286 65.3142 54.0481 63.8212 54.05 62.2639V8.22311C54.0481 6.6658 53.4286 5.17281 52.3272 4.07163C51.2258 2.97044 49.7326 2.35098 48.175 2.34911H8.225Z" fill="#023932"/>
<path d="M48.175 70.4875H8.225C6.04436 70.485 3.95374 69.6178 2.41179 68.0761C0.869847 66.5345 0.0024879 64.4442 0 62.2639V8.22311C0.0024879 6.04284 0.869847 3.95258 2.41179 2.4109C3.95374 0.869211 6.04436 0.0019992 8.225 -0.000488281H48.175C50.3556 0.0019992 52.4463 0.869211 53.9882 2.4109C55.5302 3.95258 56.3975 6.04284 56.4 8.22311V62.2639C56.3975 64.4442 55.5302 66.5345 53.9882 68.0761C52.4463 69.6178 50.3556 70.485 48.175 70.4875ZM8.225 2.34911C6.66743 2.35098 5.17418 2.97044 4.07281 4.07163C2.97144 5.17281 2.35187 6.6658 2.35 8.22311V62.2639C2.35187 63.8212 2.97144 65.3142 4.07281 66.4154C5.17418 67.5166 6.66743 68.1361 8.225 68.1379H48.175C49.7326 68.1361 51.2258 67.5166 52.3272 66.4154C53.4286 65.3142 54.0481 63.8212 54.05 62.2639V8.22311C54.0481 6.6658 53.4286 5.17281 52.3272 4.07163C51.2258 2.97044 49.7326 2.35098 48.175 2.34911H8.225Z" stroke="black"/>
<path d="M31.7254 65.7883H24.6754C23.7405 65.7883 22.8439 65.417 22.1828 64.756C21.5218 64.0951 21.1504 63.1986 21.1504 62.2639V57.5647C21.1504 56.63 21.5218 55.7335 22.1828 55.0726C22.8439 54.4116 23.7405 54.0403 24.6754 54.0403H31.7254C32.6603 54.0403 33.5569 54.4116 34.2179 55.0726C34.879 55.7335 35.2504 56.63 35.2504 57.5647V62.2639C35.2504 63.1986 34.879 64.0951 34.2179 64.756C33.5569 65.417 32.6603 65.7883 31.7254 65.7883ZM24.6754 56.3899C24.3638 56.3899 24.0649 56.5137 23.8445 56.734C23.6242 56.9543 23.5004 57.2531 23.5004 57.5647V62.2639C23.5004 62.5755 23.6242 62.8743 23.8445 63.0946C24.0649 63.3149 24.3638 63.4387 24.6754 63.4387H31.7254C32.037 63.4387 32.3359 63.3149 32.5562 63.0946C32.7766 62.8743 32.9004 62.5755 32.9004 62.2639V57.5647C32.9004 57.2531 32.7766 56.9543 32.5562 56.734C32.3359 56.5137 32.037 56.3899 31.7254 56.3899H24.6754Z" fill="#023932"/>
<path d="M31.7254 65.7883H24.6754C23.7405 65.7883 22.8439 65.417 22.1828 64.756C21.5218 64.0951 21.1504 63.1986 21.1504 62.2639V57.5647C21.1504 56.63 21.5218 55.7335 22.1828 55.0726C22.8439 54.4116 23.7405 54.0403 24.6754 54.0403H31.7254C32.6603 54.0403 33.5569 54.4116 34.2179 55.0726C34.879 55.7335 35.2504 56.63 35.2504 57.5647V62.2639C35.2504 63.1986 34.879 64.0951 34.2179 64.756C33.5569 65.417 32.6603 65.7883 31.7254 65.7883ZM24.6754 56.3899C24.3638 56.3899 24.0649 56.5137 23.8445 56.734C23.6242 56.9543 23.5004 57.2531 23.5004 57.5647V62.2639C23.5004 62.5755 23.6242 62.8743 23.8445 63.0946C24.0649 63.3149 24.3638 63.4387 24.6754 63.4387H31.7254C32.037 63.4387 32.3359 63.3149 32.5562 63.0946C32.7766 62.8743 32.9004 62.5755 32.9004 62.2639V57.5647C32.9004 57.2531 32.7766 56.9543 32.5562 56.734C32.3359 56.5137 32.037 56.3899 31.7254 56.3899H24.6754Z" stroke="black"/>
<path d="M15.2752 65.7883H8.2252C7.29031 65.7883 6.39371 65.417 5.73264 64.756C5.07158 64.0951 4.7002 63.1986 4.7002 62.2639V57.5647C4.7002 56.63 5.07158 55.7335 5.73264 55.0726C6.39371 54.4116 7.29031 54.0403 8.2252 54.0403H15.2752C16.2101 54.0403 17.1067 54.4116 17.7677 55.0726C18.4288 55.7335 18.8002 56.63 18.8002 57.5647V62.2639C18.8002 63.1986 18.4288 64.0951 17.7677 64.756C17.1067 65.417 16.2101 65.7883 15.2752 65.7883ZM8.2252 56.3899C7.91357 56.3899 7.6147 56.5137 7.39435 56.734C7.17399 56.9543 7.0502 57.2531 7.0502 57.5647V62.2639C7.0502 62.5755 7.17399 62.8743 7.39435 63.0946C7.6147 63.3149 7.91357 63.4387 8.2252 63.4387H15.2752C15.5868 63.4387 15.8857 63.3149 16.106 63.0946C16.3264 62.8743 16.4502 62.5755 16.4502 62.2639V57.5647C16.4502 57.2531 16.3264 56.9543 16.106 56.734C15.8857 56.5137 15.5868 56.3899 15.2752 56.3899H8.2252Z" fill="#023932"/>
<path d="M15.2752 65.7883H8.2252C7.29031 65.7883 6.39371 65.417 5.73264 64.756C5.07158 64.0951 4.7002 63.1986 4.7002 62.2639V57.5647C4.7002 56.63 5.07158 55.7335 5.73264 55.0726C6.39371 54.4116 7.29031 54.0403 8.2252 54.0403H15.2752C16.2101 54.0403 17.1067 54.4116 17.7677 55.0726C18.4288 55.7335 18.8002 56.63 18.8002 57.5647V62.2639C18.8002 63.1986 18.4288 64.0951 17.7677 64.756C17.1067 65.417 16.2101 65.7883 15.2752 65.7883ZM8.2252 56.3899C7.91357 56.3899 7.6147 56.5137 7.39435 56.734C7.17399 56.9543 7.0502 57.2531 7.0502 57.5647V62.2639C7.0502 62.5755 7.17399 62.8743 7.39435 63.0946C7.6147 63.3149 7.91357 63.4387 8.2252 63.4387H15.2752C15.5868 63.4387 15.8857 63.3149 16.106 63.0946C16.3264 62.8743 16.4502 62.5755 16.4502 62.2639V57.5647C16.4502 57.2531 16.3264 56.9543 16.106 56.734C15.8857 56.5137 15.5868 56.3899 15.2752 56.3899H8.2252Z" stroke="black"/>
<path d="M48.1746 65.7884H41.1246C40.1897 65.7884 39.2931 65.417 38.6321 64.7561C37.971 64.0951 37.5996 63.1987 37.5996 62.264V43.4671C37.5996 42.5324 37.971 41.636 38.6321 40.975C39.2931 40.3141 40.1897 39.9427 41.1246 39.9427H48.1746C49.1095 39.9427 50.0061 40.3141 50.6672 40.975C51.3282 41.636 51.6996 42.5324 51.6996 43.4671V62.264C51.6996 63.1987 51.3282 64.0951 50.6672 64.7561C50.0061 65.417 49.1095 65.7884 48.1746 65.7884ZM41.1246 42.2923C40.813 42.2923 40.5141 42.4161 40.2938 42.6364C40.0734 42.8568 39.9496 43.1556 39.9496 43.4671V62.264C39.9496 62.5755 40.0734 62.8743 40.2938 63.0947C40.5141 63.315 40.813 63.4388 41.1246 63.4388H48.1746C48.4862 63.4388 48.7851 63.315 49.0055 63.0947C49.2258 62.8743 49.3496 62.5755 49.3496 62.264V43.4671C49.3496 43.1556 49.2258 42.8568 49.0055 42.6364C48.7851 42.4161 48.4862 42.2923 48.1746 42.2923H41.1246Z" fill="#023932"/>
<path d="M48.1746 65.7884H41.1246C40.1897 65.7884 39.2931 65.417 38.6321 64.7561C37.971 64.0951 37.5996 63.1987 37.5996 62.264V43.4671C37.5996 42.5324 37.971 41.636 38.6321 40.975C39.2931 40.3141 40.1897 39.9427 41.1246 39.9427H48.1746C49.1095 39.9427 50.0061 40.3141 50.6672 40.975C51.3282 41.636 51.6996 42.5324 51.6996 43.4671V62.264C51.6996 63.1987 51.3282 64.0951 50.6672 64.7561C50.0061 65.417 49.1095 65.7884 48.1746 65.7884ZM41.1246 42.2923C40.813 42.2923 40.5141 42.4161 40.2938 42.6364C40.0734 42.8568 39.9496 43.1556 39.9496 43.4671V62.264C39.9496 62.5755 40.0734 62.8743 40.2938 63.0947C40.5141 63.315 40.813 63.4388 41.1246 63.4388H48.1746C48.4862 63.4388 48.7851 63.315 49.0055 63.0947C49.2258 62.8743 49.3496 62.5755 49.3496 62.264V43.4671C49.3496 43.1556 49.2258 42.8568 49.0055 42.6364C48.7851 42.4161 48.4862 42.2923 48.1746 42.2923H41.1246Z" stroke="black"/>
<path d="M31.7254 51.6908H24.6754C23.7405 51.6908 22.8439 51.3194 22.1828 50.6585C21.5218 49.9975 21.1504 49.1011 21.1504 48.1664V43.4671C21.1504 42.5324 21.5218 41.636 22.1828 40.975C22.8439 40.3141 23.7405 39.9427 24.6754 39.9427H31.7254C32.6603 39.9427 33.5569 40.3141 34.2179 40.975C34.879 41.636 35.2504 42.5324 35.2504 43.4671V48.1664C35.2504 49.1011 34.879 49.9975 34.2179 50.6585C33.5569 51.3194 32.6603 51.6908 31.7254 51.6908ZM24.6754 42.2923C24.3638 42.2923 24.0649 42.4161 23.8445 42.6364C23.6242 42.8568 23.5004 43.1556 23.5004 43.4671V48.1664C23.5004 48.4779 23.6242 48.7767 23.8445 48.9971C24.0649 49.2174 24.3638 49.3412 24.6754 49.3412H31.7254C32.037 49.3412 32.3359 49.2174 32.5562 48.9971C32.7766 48.7767 32.9004 48.4779 32.9004 48.1664V43.4671C32.9004 43.1556 32.7766 42.8568 32.5562 42.6364C32.3359 42.4161 32.037 42.2923 31.7254 42.2923H24.6754Z" fill="#023932"/>
<path d="M31.7254 51.6908H24.6754C23.7405 51.6908 22.8439 51.3194 22.1828 50.6585C21.5218 49.9975 21.1504 49.1011 21.1504 48.1664V43.4671C21.1504 42.5324 21.5218 41.636 22.1828 40.975C22.8439 40.3141 23.7405 39.9427 24.6754 39.9427H31.7254C32.6603 39.9427 33.5569 40.3141 34.2179 40.975C34.879 41.636 35.2504 42.5324 35.2504 43.4671V48.1664C35.2504 49.1011 34.879 49.9975 34.2179 50.6585C33.5569 51.3194 32.6603 51.6908 31.7254 51.6908ZM24.6754 42.2923C24.3638 42.2923 24.0649 42.4161 23.8445 42.6364C23.6242 42.8568 23.5004 43.1556 23.5004 43.4671V48.1664C23.5004 48.4779 23.6242 48.7767 23.8445 48.9971C24.0649 49.2174 24.3638 49.3412 24.6754 49.3412H31.7254C32.037 49.3412 32.3359 49.2174 32.5562 48.9971C32.7766 48.7767 32.9004 48.4779 32.9004 48.1664V43.4671C32.9004 43.1556 32.7766 42.8568 32.5562 42.6364C32.3359 42.4161 32.037 42.2923 31.7254 42.2923H24.6754Z" stroke="black"/>
<path d="M15.2752 51.6908H8.2252C7.29031 51.6908 6.39371 51.3194 5.73264 50.6585C5.07158 49.9975 4.7002 49.1011 4.7002 48.1664V43.4671C4.7002 42.5324 5.07158 41.636 5.73264 40.975C6.39371 40.3141 7.29031 39.9427 8.2252 39.9427H15.2752C16.2101 39.9427 17.1067 40.3141 17.7677 40.975C18.4288 41.636 18.8002 42.5324 18.8002 43.4671V48.1664C18.8002 49.1011 18.4288 49.9975 17.7677 50.6585C17.1067 51.3194 16.2101 51.6908 15.2752 51.6908ZM8.2252 42.2923C7.91357 42.2923 7.6147 42.4161 7.39435 42.6364C7.17399 42.8568 7.0502 43.1556 7.0502 43.4671V48.1664C7.0502 48.4779 7.17399 48.7767 7.39435 48.9971C7.6147 49.2174 7.91357 49.3412 8.2252 49.3412H15.2752C15.5868 49.3412 15.8857 49.2174 16.106 48.9971C16.3264 48.7767 16.4502 48.4779 16.4502 48.1664V43.4671C16.4502 43.1556 16.3264 42.8568 16.106 42.6364C15.8857 42.4161 15.5868 42.2923 15.2752 42.2923H8.2252Z" fill="#023932"/>
<path d="M15.2752 51.6908H8.2252C7.29031 51.6908 6.39371 51.3194 5.73264 50.6585C5.07158 49.9975 4.7002 49.1011 4.7002 48.1664V43.4671C4.7002 42.5324 5.07158 41.636 5.73264 40.975C6.39371 40.3141 7.29031 39.9427 8.2252 39.9427H15.2752C16.2101 39.9427 17.1067 40.3141 17.7677 40.975C18.4288 41.636 18.8002 42.5324 18.8002 43.4671V48.1664C18.8002 49.1011 18.4288 49.9975 17.7677 50.6585C17.1067 51.3194 16.2101 51.6908 15.2752 51.6908ZM8.2252 42.2923C7.91357 42.2923 7.6147 42.4161 7.39435 42.6364C7.17399 42.8568 7.0502 43.1556 7.0502 43.4671V48.1664C7.0502 48.4779 7.17399 48.7767 7.39435 48.9971C7.6147 49.2174 7.91357 49.3412 8.2252 49.3412H15.2752C15.5868 49.3412 15.8857 49.2174 16.106 48.9971C16.3264 48.7767 16.4502 48.4779 16.4502 48.1664V43.4671C16.4502 43.1556 16.3264 42.8568 16.106 42.6364C15.8857 42.4161 15.5868 42.2923 15.2752 42.2923H8.2252Z" stroke="black"/>
<path d="M31.7254 37.5931H24.6754C23.7405 37.5931 22.8439 37.2218 22.1828 36.5608C21.5218 35.8999 21.1504 35.0034 21.1504 34.0687V29.3695C21.1504 28.4348 21.5218 27.5383 22.1828 26.8774C22.8439 26.2164 23.7405 25.8451 24.6754 25.8451H31.7254C32.6603 25.8451 33.5569 26.2164 34.2179 26.8774C34.879 27.5383 35.2504 28.4348 35.2504 29.3695V34.0687C35.2504 35.0034 34.879 35.8999 34.2179 36.5608C33.5569 37.2218 32.6603 37.5931 31.7254 37.5931ZM24.6754 28.1947C24.3638 28.1947 24.0649 28.3185 23.8445 28.5388C23.6242 28.7591 23.5004 29.0579 23.5004 29.3695V34.0687C23.5004 34.3803 23.6242 34.6791 23.8445 34.8994C24.0649 35.1197 24.3638 35.2435 24.6754 35.2435H31.7254C32.037 35.2435 32.3359 35.1197 32.5562 34.8994C32.7766 34.6791 32.9004 34.3803 32.9004 34.0687V29.3695C32.9004 29.0579 32.7766 28.7591 32.5562 28.5388C32.3359 28.3185 32.037 28.1947 31.7254 28.1947H24.6754Z" fill="#023932"/>
<path d="M31.7254 37.5931H24.6754C23.7405 37.5931 22.8439 37.2218 22.1828 36.5608C21.5218 35.8999 21.1504 35.0034 21.1504 34.0687V29.3695C21.1504 28.4348 21.5218 27.5383 22.1828 26.8774C22.8439 26.2164 23.7405 25.8451 24.6754 25.8451H31.7254C32.6603 25.8451 33.5569 26.2164 34.2179 26.8774C34.879 27.5383 35.2504 28.4348 35.2504 29.3695V34.0687C35.2504 35.0034 34.879 35.8999 34.2179 36.5608C33.5569 37.2218 32.6603 37.5931 31.7254 37.5931ZM24.6754 28.1947C24.3638 28.1947 24.0649 28.3185 23.8445 28.5388C23.6242 28.7591 23.5004 29.0579 23.5004 29.3695V34.0687C23.5004 34.3803 23.6242 34.6791 23.8445 34.8994C24.0649 35.1197 24.3638 35.2435 24.6754 35.2435H31.7254C32.037 35.2435 32.3359 35.1197 32.5562 34.8994C32.7766 34.6791 32.9004 34.3803 32.9004 34.0687V29.3695C32.9004 29.0579 32.7766 28.7591 32.5562 28.5388C32.3359 28.3185 32.037 28.1947 31.7254 28.1947H24.6754Z" stroke="black"/>
<path d="M15.2752 37.5931H8.2252C7.29031 37.5931 6.39371 37.2218 5.73264 36.5608C5.07158 35.8999 4.7002 35.0034 4.7002 34.0687V29.3695C4.7002 28.4348 5.07158 27.5383 5.73264 26.8774C6.39371 26.2164 7.29031 25.8451 8.2252 25.8451H15.2752C16.2101 25.8451 17.1067 26.2164 17.7677 26.8774C18.4288 27.5383 18.8002 28.4348 18.8002 29.3695V34.0687C18.8002 35.0034 18.4288 35.8999 17.7677 36.5608C17.1067 37.2218 16.2101 37.5931 15.2752 37.5931ZM8.2252 28.1947C7.91357 28.1947 7.6147 28.3185 7.39435 28.5388C7.17399 28.7591 7.0502 29.0579 7.0502 29.3695V34.0687C7.0502 34.3803 7.17399 34.6791 7.39435 34.8994C7.6147 35.1197 7.91357 35.2435 8.2252 35.2435H15.2752C15.5868 35.2435 15.8857 35.1197 16.106 34.8994C16.3264 34.6791 16.4502 34.3803 16.4502 34.0687V29.3695C16.4502 29.0579 16.3264 28.7591 16.106 28.5388C15.8857 28.3185 15.5868 28.1947 15.2752 28.1947H8.2252Z" fill="#023932"/>
<path d="M15.2752 37.5931H8.2252C7.29031 37.5931 6.39371 37.2218 5.73264 36.5608C5.07158 35.8999 4.7002 35.0034 4.7002 34.0687V29.3695C4.7002 28.4348 5.07158 27.5383 5.73264 26.8774C6.39371 26.2164 7.29031 25.8451 8.2252 25.8451H15.2752C16.2101 25.8451 17.1067 26.2164 17.7677 26.8774C18.4288 27.5383 18.8002 28.4348 18.8002 29.3695V34.0687C18.8002 35.0034 18.4288 35.8999 17.7677 36.5608C17.1067 37.2218 16.2101 37.5931 15.2752 37.5931ZM8.2252 28.1947C7.91357 28.1947 7.6147 28.3185 7.39435 28.5388C7.17399 28.7591 7.0502 29.0579 7.0502 29.3695V34.0687C7.0502 34.3803 7.17399 34.6791 7.39435 34.8994C7.6147 35.1197 7.91357 35.2435 8.2252 35.2435H15.2752C15.5868 35.2435 15.8857 35.1197 16.106 34.8994C16.3264 34.6791 16.4502 34.3803 16.4502 34.0687V29.3695C16.4502 29.0579 16.3264 28.7591 16.106 28.5388C15.8857 28.3185 15.5868 28.1947 15.2752 28.1947H8.2252Z" stroke="black"/>
<path d="M48.1746 37.5931H41.1246C40.1897 37.5931 39.2931 37.2218 38.6321 36.5608C37.971 35.8999 37.5996 35.0034 37.5996 34.0687V29.3695C37.5996 28.4348 37.971 27.5383 38.6321 26.8774C39.2931 26.2164 40.1897 25.8451 41.1246 25.8451H48.1746C49.1095 25.8451 50.0061 26.2164 50.6672 26.8774C51.3282 27.5383 51.6996 28.4348 51.6996 29.3695V34.0687C51.6996 35.0034 51.3282 35.8999 50.6672 36.5608C50.0061 37.2218 49.1095 37.5931 48.1746 37.5931ZM41.1246 28.1947C40.813 28.1947 40.5141 28.3185 40.2938 28.5388C40.0734 28.7591 39.9496 29.0579 39.9496 29.3695V34.0687C39.9496 34.3803 40.0734 34.6791 40.2938 34.8994C40.5141 35.1197 40.813 35.2435 41.1246 35.2435H48.1746C48.4862 35.2435 48.7851 35.1197 49.0055 34.8994C49.2258 34.6791 49.3496 34.3803 49.3496 34.0687V29.3695C49.3496 29.0579 49.2258 28.7591 49.0055 28.5388C48.7851 28.3185 48.4862 28.1947 48.1746 28.1947H41.1246Z" fill="#023932"/>
<path d="M48.1746 37.5931H41.1246C40.1897 37.5931 39.2931 37.2218 38.6321 36.5608C37.971 35.8999 37.5996 35.0034 37.5996 34.0687V29.3695C37.5996 28.4348 37.971 27.5383 38.6321 26.8774C39.2931 26.2164 40.1897 25.8451 41.1246 25.8451H48.1746C49.1095 25.8451 50.0061 26.2164 50.6672 26.8774C51.3282 27.5383 51.6996 28.4348 51.6996 29.3695V34.0687C51.6996 35.0034 51.3282 35.8999 50.6672 36.5608C50.0061 37.2218 49.1095 37.5931 48.1746 37.5931ZM41.1246 28.1947C40.813 28.1947 40.5141 28.3185 40.2938 28.5388C40.0734 28.7591 39.9496 29.0579 39.9496 29.3695V34.0687C39.9496 34.3803 40.0734 34.6791 40.2938 34.8994C40.5141 35.1197 40.813 35.2435 41.1246 35.2435H48.1746C48.4862 35.2435 48.7851 35.1197 49.0055 34.8994C49.2258 34.6791 49.3496 34.3803 49.3496 34.0687V29.3695C49.3496 29.0579 49.2258 28.7591 49.0055 28.5388C48.7851 28.3185 48.4862 28.1947 48.1746 28.1947H41.1246Z" stroke="black"/>
<path d="M48.1752 21.1459H8.2252C7.29031 21.1459 6.39371 20.7746 5.73264 20.1137C5.07158 19.4527 4.7002 18.5563 4.7002 17.6215V8.22313C4.7002 7.2884 5.07158 6.39196 5.73264 5.731C6.39371 5.07005 7.29031 4.69873 8.2252 4.69873H48.1752C49.1101 4.69873 50.0067 5.07005 50.6677 5.731C51.3288 6.39196 51.7002 7.2884 51.7002 8.22313V17.6215C51.7002 18.5563 51.3288 19.4527 50.6677 20.1137C50.0067 20.7746 49.1101 21.1459 48.1752 21.1459ZM8.2252 7.04833C7.91357 7.04833 7.6147 7.1721 7.39435 7.39242C7.17399 7.61274 7.0502 7.91155 7.0502 8.22313V17.6215C7.0502 17.9331 7.17399 18.2319 7.39435 18.4522C7.6147 18.6726 7.91357 18.7963 8.2252 18.7963H48.1752C48.4868 18.7963 48.7857 18.6726 49.006 18.4522C49.2264 18.2319 49.3502 17.9331 49.3502 17.6215V8.22313C49.3502 7.91155 49.2264 7.61274 49.006 7.39242C48.7857 7.1721 48.4868 7.04833 48.1752 7.04833H8.2252Z" fill="#023932"/>
<path d="M48.1752 21.1459H8.2252C7.29031 21.1459 6.39371 20.7746 5.73264 20.1137C5.07158 19.4527 4.7002 18.5563 4.7002 17.6215V8.22313C4.7002 7.2884 5.07158 6.39196 5.73264 5.731C6.39371 5.07005 7.29031 4.69873 8.2252 4.69873H48.1752C49.1101 4.69873 50.0067 5.07005 50.6677 5.731C51.3288 6.39196 51.7002 7.2884 51.7002 8.22313V17.6215C51.7002 18.5563 51.3288 19.4527 50.6677 20.1137C50.0067 20.7746 49.1101 21.1459 48.1752 21.1459ZM8.2252 7.04833C7.91357 7.04833 7.6147 7.1721 7.39435 7.39242C7.17399 7.61274 7.0502 7.91155 7.0502 8.22313V17.6215C7.0502 17.9331 7.17399 18.2319 7.39435 18.4522C7.6147 18.6726 7.91357 18.7963 8.2252 18.7963H48.1752C48.4868 18.7963 48.7857 18.6726 49.006 18.4522C49.2264 18.2319 49.3502 17.9331 49.3502 17.6215V8.22313C49.3502 7.91155 49.2264 7.61274 49.006 7.39242C48.7857 7.1721 48.4868 7.04833 48.1752 7.04833H8.2252Z" stroke="black"/>
<path d="M44.65 17.6215C43.7151 17.6215 42.8185 17.2502 42.1575 16.5892C41.4964 15.9283 41.125 15.0318 41.125 14.0971V11.7475C41.125 10.8128 41.4964 9.91631 42.1575 9.25536C42.8185 8.5944 43.7151 8.22308 44.65 8.22308C45.5849 8.22308 46.4815 8.5944 47.1425 9.25536C47.8036 9.91631 48.175 10.8128 48.175 11.7475V14.0971C48.175 15.0318 47.8036 15.9283 47.1425 16.5892C46.4815 17.2502 45.5849 17.6215 44.65 17.6215ZM44.65 10.5727C44.3384 10.5727 44.0395 10.6965 43.8191 10.9168C43.5988 11.1371 43.475 11.4359 43.475 11.7475V14.0971C43.475 14.4087 43.5988 14.7075 43.8191 14.9278C44.0395 15.1481 44.3384 15.2719 44.65 15.2719C44.9616 15.2719 45.2605 15.1481 45.4809 14.9278C45.7012 14.7075 45.825 14.4087 45.825 14.0971V11.7475C45.825 11.4359 45.7012 11.1371 45.4809 10.9168C45.2605 10.6965 44.9616 10.5727 44.65 10.5727Z" fill="#023932"/>
<path d="M44.65 17.6215C43.7151 17.6215 42.8185 17.2502 42.1575 16.5892C41.4964 15.9283 41.125 15.0318 41.125 14.0971V11.7475C41.125 10.8128 41.4964 9.91631 42.1575 9.25536C42.8185 8.5944 43.7151 8.22308 44.65 8.22308C45.5849 8.22308 46.4815 8.5944 47.1425 9.25536C47.8036 9.91631 48.175 10.8128 48.175 11.7475V14.0971C48.175 15.0318 47.8036 15.9283 47.1425 16.5892C46.4815 17.2502 45.5849 17.6215 44.65 17.6215ZM44.65 10.5727C44.3384 10.5727 44.0395 10.6965 43.8191 10.9168C43.5988 11.1371 43.475 11.4359 43.475 11.7475V14.0971C43.475 14.4087 43.5988 14.7075 43.8191 14.9278C44.0395 15.1481 44.3384 15.2719 44.65 15.2719C44.9616 15.2719 45.2605 15.1481 45.4809 14.9278C45.7012 14.7075 45.825 14.4087 45.825 14.0971V11.7475C45.825 11.4359 45.7012 11.1371 45.4809 10.9168C45.2605 10.6965 44.9616 10.5727 44.65 10.5727Z" stroke="black"/>
</svg>
