<svg width="100" height="100" viewBox="0 0 100 100" fill="none" xmlns="http://www.w3.org/2000/svg">
<path d="M74 64.778C72.9999 64.0002 71.8888 63.6669 70.5555 63.778C69.3332 63.8891 68.2221 64.4447 67.4443 65.4447L59.6663 74.3336C58.4441 75.8892 56.5552 76.7781 54.444 77.0003C51.9995 77.2225 49.555 76.4447 47.555 74.7781L27.9991 58.6669C24.2212 55.4446 23.3323 50.1113 26.2212 46.6668L33.9992 37.7779C35.6659 35.7779 35.3325 32.889 33.3325 31.2223L18.9989 19.3334C16.9988 17.6667 14.1099 18 12.4432 19.8889L4.77636 28.7779C-0.557078 35.3334 -1.44599 44.6668 2.22075 55.2224C5.77638 65.5558 13.3321 75.7781 23.4434 84.1114C33.5547 92.4448 44.9994 97.8893 55.7774 99.556C57.8885 99.8893 59.9997 100 61.8886 100C70.111 100 76.8889 97.2226 81.1112 92.1115L88.778 83.2226C89.5558 82.2225 90.0003 81.0003 89.7781 79.7781C89.667 78.5559 89.1114 77.4447 88.1114 76.667L74 64.778ZM14.9988 22.1112C15.221 21.7778 15.6655 21.6667 15.9988 21.6667C16.3321 21.6667 16.5544 21.7778 16.8877 22L31.2213 33.7779C31.7769 34.2223 31.888 35.1112 31.4436 35.6668L26.6657 41.2224L10.2209 27.6667L14.9988 22.1112ZM56.2218 96.2226C45.9994 94.7782 35.1103 89.5559 25.5546 81.5559C15.8877 73.5558 8.77644 63.8891 5.33193 54.1113C1.99853 44.6668 2.77632 36.4446 7.33197 31.0001L8.10976 30.1112L24.4434 43.6668L23.7767 44.4446C19.7767 49.3335 20.7767 56.778 25.999 61.1113L45.555 77.3336C48.2217 79.5559 51.5551 80.5559 54.8885 80.3337C57.8885 80.0003 60.5553 78.667 62.3331 76.4447L63.1109 75.5559L79.4445 89.1115L78.5556 90.0004C74 95.4448 66.1109 97.6671 56.2218 96.2226ZM86.3335 81.0003L81.5557 86.5559L65.1109 73.1114L69.8888 67.5558C70.111 67.3336 70.4443 67.1114 70.7777 67.1114C71.111 67.1114 71.4444 67.2225 71.7777 67.4447L86.1113 79.2225C86.3335 79.4448 86.5558 79.7781 86.5558 80.1114C86.6669 80.4448 86.5558 80.7781 86.3335 81.0003Z" fill="#023932"/>
<path d="M91.3329 8.66671C85.7772 3.11113 78.3326 0 70.4436 0C62.5545 0 55.1099 3.11113 49.5543 8.66671C40.5541 17.6667 38.3318 31.1113 43.7764 42.4446L40.2207 57.778C40.1096 58.3336 40.2207 58.8892 40.6652 59.3336C40.9985 59.6669 41.443 59.7781 41.8874 59.7781H42.2208L57.5544 56.3336C68.888 61.7781 82.4438 59.5558 91.3329 50.5558C102.889 39.0002 102.889 20.2223 91.3329 8.66671ZM88.9995 48.2225C80.8882 56.3336 68.6658 58.2225 58.5544 53.1114C58.2211 52.8891 57.7766 52.8891 57.4433 53.0002L44.1097 56.0003L47.1098 42.6669C47.2209 42.3335 47.1098 41.8891 46.9987 41.5558C41.8874 31.4446 43.7764 19.1112 51.8876 11.1112C56.7766 6.11114 63.3323 3.33335 70.3325 3.33335C77.3326 3.33335 83.9994 6.11114 88.8884 11.0001C99.2219 21.2223 99.2219 38.0002 88.9995 48.2225Z" fill="#023932"/>
<path d="M83.7782 14.4445C81.0003 12.1112 77.0002 11.4445 72.4446 12.7778C71.889 13.0001 71.4446 13.1112 71.0001 13.2223C70.4446 13.4445 70.3334 13.4445 69.6668 13.2223C69.3334 13.1112 68.889 13.0001 68.2223 12.7778C63.7778 11.5556 59.7777 12.1112 56.8887 14.4445C54.222 16.6667 52.9998 20.2223 53.5553 24.3334C53.7776 26.1112 54.4442 27.6668 55.222 29.1112C56.1109 31.0001 56.9999 32.889 56.8887 35.3335L56.6665 40.3335C56.5554 44.2224 59.4443 46.778 62.2222 47.1113C64.4444 47.3335 67.2223 46.0002 67.889 41.8891C67.889 41.5557 68.0001 41.1113 68.0001 40.5557C68.3334 37.1113 68.7779 35.0002 70.3335 35.0002C71.7779 35.0002 72.3335 37.0002 72.6668 40.4446C72.6668 40.8891 72.7779 41.3335 72.7779 41.778C73.3335 45.6669 75.778 47.1113 78.0003 47.1113H78.4447C81.2226 46.8891 84.1115 44.2224 84.0004 40.3335L83.7782 35.3335C83.6671 32.7779 84.556 31.0001 85.4449 29.1112C86.1115 27.6668 86.8893 26.1112 87.0005 24.3334C87.556 20.2223 86.4449 16.6667 83.7782 14.4445ZM83.7782 24.0001C83.6671 25.2223 83.1115 26.3334 82.4448 27.6668C81.4448 29.7779 80.3337 32.1113 80.4448 35.4446L80.667 40.4446C80.7781 42.3335 79.4447 43.6669 78.1114 43.778C76.6669 43.8891 76.2225 42.3335 76.1113 41.3335C76.1113 41.0002 76.0002 40.5557 76.0002 40.1113C75.6669 37.1113 75.1113 31.6668 70.3335 31.6668C65.5556 31.6668 65 37.2224 64.6667 40.2224C64.6667 40.6668 64.5556 41.0002 64.5556 41.3335C64.4444 42.3335 64 43.8891 62.5555 43.778C61.3333 43.6669 59.9999 42.3335 59.9999 40.4446L60.2221 35.4446C60.3333 32.1113 59.2221 29.6668 58.2221 27.6668C57.5554 26.3334 56.9999 25.2223 56.8887 24.0001C56.5554 21.0001 57.3332 18.4445 59.111 17.0001C60.3333 16.0001 62 15.4445 63.8889 15.4445C65 15.4445 66.1111 15.6667 67.3334 16.0001C67.889 16.1112 68.3334 16.3334 68.6668 16.4445C69.889 16.889 70.7779 16.889 72.0002 16.4445C72.3335 16.3334 72.7779 16.2223 73.3335 16.0001C76.6669 15.0001 79.667 15.4445 81.5559 17.0001C83.3337 18.5556 84.1115 21.0001 83.7782 24.0001Z" fill="#023932"/>
</svg>
