<svg width="106" height="106" viewBox="0 0 106 106" fill="none" xmlns="http://www.w3.org/2000/svg">
<path d="M103.434 76.6473L88.5469 61.7616V17.7596C88.5463 14.2471 87.5042 10.8136 85.5524 7.89318C83.6005 4.97278 80.8266 2.69657 77.5812 1.3523C74.3358 0.00803219 70.7646 -0.343946 67.3192 0.340862C63.8738 1.02567 60.7087 2.71652 58.2242 5.19966L54.7686 8.65494L53.6904 7.57235C52.9345 6.81061 51.9413 6.32961 50.8749 6.20888C49.8086 6.08815 48.7329 6.3349 47.8258 6.90836L39.3961 12.1914C39.1951 12.3175 39.0251 12.4874 38.8988 12.6882C38.7725 12.8891 38.693 13.1158 38.6664 13.3516C38.6398 13.5874 38.6667 13.8262 38.7451 14.0501C38.8234 14.2741 38.9513 14.4775 39.1191 14.6453L51.0062 26.5358C51.3022 26.8319 51.7036 26.9984 52.1223 26.9986C52.1826 26.9985 52.2428 26.9952 52.3028 26.9887C52.5386 26.9617 52.7653 26.882 52.9662 26.7555C53.167 26.629 53.3368 26.4589 53.4631 26.2579L58.7466 17.8308C59.32 16.9238 59.5666 15.8483 59.4459 14.782C59.3252 13.7158 58.8442 12.7227 58.0826 11.9668L57.0044 10.8842L60.46 7.4289C62.5028 5.38564 65.1059 3.99412 67.9398 3.43039C70.7738 2.86666 73.7113 3.15605 76.3807 4.26194C79.0501 5.36784 81.3315 7.24055 82.9363 9.64317C84.5411 12.0458 85.3972 14.8704 85.3963 17.7596V58.6085L84.0068 57.2228C82.4474 55.6591 80.5634 54.457 78.4881 53.7015C76.4128 52.946 74.1969 52.6557 71.997 52.8509L54.5836 54.3738V47.3144H74.1624C74.3698 47.3145 74.5751 47.2737 74.7668 47.1944C74.9584 47.1151 75.1325 46.9989 75.2791 46.8522C75.4258 46.7056 75.5421 46.5315 75.6214 46.3399C75.7007 46.1483 75.7414 45.943 75.7413 45.7356V41.8563C75.7401 40.7201 75.2882 39.6309 74.4848 38.8275C73.6813 38.0241 72.5919 37.5722 71.4557 37.571H44.0021C42.8658 37.5722 41.7764 38.0241 40.973 38.8275C40.1695 39.6309 39.7176 40.7201 39.7164 41.8563V45.7356C39.7164 46.1543 39.8828 46.5559 40.1789 46.852C40.475 47.148 40.8766 47.3144 41.2954 47.3144H51.4267V54.6535L41.6626 55.5069L14.4535 28.2986C12.9102 26.7256 10.8196 25.8082 8.61699 25.7373C6.41432 25.6664 4.26913 26.4474 2.62777 27.9179C1.8135 28.6841 1.16142 29.606 0.710187 30.6289C0.258958 31.6518 0.0177755 32.7549 0.000946027 33.8728C-0.0158834 34.9907 0.191983 36.1005 0.612215 37.1366C1.03245 38.1726 1.65649 39.1137 2.44732 39.904L30.3737 67.8331C31.9338 69.3962 33.818 70.5978 35.8933 71.353C37.9686 72.1083 40.1845 72.3988 42.3844 72.2041L46.0132 71.8866V87.318H35.8629C35.4442 87.318 35.0426 87.4844 34.7464 87.7805C34.4503 88.0765 34.284 88.4781 34.284 88.8968V104.421C34.284 104.84 34.4503 105.242 34.7464 105.538C35.0426 105.834 35.4442 106 35.8629 106H70.1483C70.5671 106 70.9687 105.834 71.2648 105.538C71.5609 105.242 71.7272 104.84 71.7272 104.421V88.8968C71.7272 88.4781 71.5609 88.0765 71.2648 87.7805C70.9687 87.4844 70.5671 87.318 70.1483 87.318H59.998V70.6632L72.7197 69.5509L91.8266 88.655C92.5993 89.4332 93.5189 90.05 94.532 90.4699C95.5451 90.8897 96.6315 91.1042 97.7282 91.1008H97.8572C98.9758 91.0875 100.08 90.8478 101.104 90.3961C102.127 89.9445 103.048 89.2902 103.812 88.4728C105.284 86.8322 106.066 84.6871 105.996 82.4842C105.925 80.2813 105.008 78.1905 103.434 76.6473ZM56.066 16.1528L51.8372 22.9019L42.7525 13.818L49.5022 9.58687C49.8046 9.39567 50.1633 9.31344 50.5188 9.3538C50.8744 9.39415 51.2055 9.55468 51.4574 9.80881L55.8468 14.1978C56.1007 14.4499 56.2609 14.781 56.3011 15.1365C56.3413 15.4919 56.259 15.8504 56.0678 16.1528H56.066ZM42.8743 41.8536C42.8745 41.5546 42.9934 41.2679 43.2049 41.0564C43.4163 40.845 43.7031 40.7261 44.0021 40.7259H71.4548C71.7539 40.7259 72.0407 40.8447 72.2522 41.0562C72.4637 41.2677 72.5826 41.5545 72.5826 41.8536V44.1568H42.8743V41.8536ZM68.5694 102.84H37.4419V90.4756H68.5694V102.84ZM56.8402 87.3153H49.1711V71.6105L56.8402 70.9393V87.3153ZM101.514 86.3049C101.039 86.8134 100.466 87.2205 99.829 87.5016C99.1923 87.7827 98.5053 87.932 97.8094 87.9405C97.1146 87.9488 96.4251 87.8187 95.7811 87.5577C95.1372 87.2967 94.5517 86.9101 94.0587 86.4204L74.4313 66.8011C74.135 66.5048 73.7333 66.3383 73.3143 66.3383C73.2683 66.3383 73.2241 66.3383 73.1771 66.3446L42.1092 69.0565C40.3689 69.2112 38.6158 68.9819 36.9739 68.3848C35.3319 67.7878 33.8411 66.8375 32.6067 65.6012L4.67677 37.6739C4.18502 37.1822 3.79706 36.5967 3.53591 35.9523C3.27476 35.3078 3.14574 34.6174 3.15652 33.9222C3.16729 33.2269 3.31763 32.5408 3.59862 31.9048C3.8796 31.2687 4.28551 30.6955 4.79226 30.2193C5.83347 29.3053 7.18704 28.828 8.5713 28.8867C9.95556 28.9453 11.2639 29.5354 12.2241 30.5342L39.9501 58.2576C40.1129 58.4209 40.3096 58.5465 40.5264 58.6254C40.7431 58.7043 40.9745 58.7346 41.2042 58.7141L72.2713 55.9959C74.012 55.8414 75.7654 56.0711 77.4076 56.6688C79.0497 57.2665 80.5406 58.2175 81.7747 59.4548L101.201 78.8801C102.199 79.8402 102.788 81.1478 102.846 82.5311C102.905 83.9145 102.427 85.267 101.514 86.3076V86.3049Z" fill="#debea5"/>
</svg>
