<svg width="104" height="104" viewBox="0 0 104 104" fill="none" xmlns="http://www.w3.org/2000/svg">
<path d="M65.0781 89.9276V79.4648" stroke="#debea5" stroke-width="3" stroke-miterlimit="10" stroke-linecap="round" stroke-linejoin="round"/>
<path d="M38.9219 89.9276V79.4648" stroke="#debea5" stroke-width="3" stroke-miterlimit="10" stroke-linecap="round" stroke-linejoin="round"/>
<path d="M57.825 79.4648H95.9638C99.2978 79.4648 102 76.7626 102 73.4286V8.03622C102 4.70221 99.2978 2 95.9638 2H8.03622C4.70221 2 2 4.70221 2 8.03622V73.4286C2 76.7626 4.70221 79.4648 8.03622 79.4648H66.9117" stroke="#debea5" stroke-width="3" stroke-miterlimit="10" stroke-linecap="round" stroke-linejoin="round"/>
<path d="M72.1207 102H31.8793C30.768 102 29.8672 101.099 29.8672 99.988V95.9638C29.8672 92.63 32.5696 89.9276 35.9034 89.9276H68.0966C71.4304 89.9276 74.1328 92.63 74.1328 95.9638V99.988C74.1328 101.099 73.232 102 72.1207 102Z" stroke="#debea5" stroke-width="3" stroke-miterlimit="10" stroke-linecap="round" stroke-linejoin="round"/>
<path d="M25.1118 19.8371C26.5082 19.2616 28.0474 18.9437 29.6651 18.9437C32.319 18.9437 34.4297 19.7083 36.0836 20.7707C39.2325 22.7948 43.2365 22.7948 46.3854 20.7707C48.0394 19.7083 50.15 18.9437 52.804 18.9437C59.1923 18.9437 64.3734 23.9075 64.3734 30.0302C64.3734 32.9095 63.2285 35.5333 61.3512 37.5031C60.4036 38.4991 59.7013 39.7003 59.2607 41.0021C57.1681 47.2013 55.81 54.1872 55.0333 59.0021C54.8703 60.0162 54.3512 60.8954 53.6168 61.5212C52.8824 62.149 51.9307 62.5212 50.9046 62.5212C49.1641 62.5212 47.6068 61.4427 46.9931 59.815L45.1339 54.8814C44.8281 54.0705 44.2869 53.3964 43.6048 52.9256C42.9247 52.4548 42.1017 52.1852 41.2345 52.1852C39.5001 52.1852 37.9468 53.2596 37.3351 54.8814L35.476 59.815C35.1702 60.6278 34.6269 61.3059 33.9428 61.7787C33.2587 62.2516 32.4337 62.5212 31.5645 62.5212C29.5102 62.5212 27.7617 61.0302 27.4357 59.0021C26.6591 54.1872 25.3009 47.2013 23.2084 41.0021C22.7677 39.7003 22.0655 38.4991 21.1178 37.5031C19.2406 35.5333 18.0957 32.9095 18.0957 30.0302C18.0957 27.9618 18.6873 26.0242 19.7194 24.3663" stroke="#debea5" stroke-width="3" stroke-miterlimit="10" stroke-linecap="round" stroke-linejoin="round"/>
<path d="M70.7148 23.0145H80.7752" stroke="#debea5" stroke-width="3" stroke-miterlimit="10" stroke-linecap="round" stroke-linejoin="round"/>
<path d="M70.7148 31.0626H86.8114" stroke="#debea5" stroke-width="3" stroke-miterlimit="10" stroke-linecap="round" stroke-linejoin="round"/>
<path d="M70.7148 39.1111H86.8114" stroke="#debea5" stroke-width="3" stroke-miterlimit="10" stroke-linecap="round" stroke-linejoin="round"/>
<path d="M83.7935 61.2439H73.7331C71.5106 61.2439 69.709 59.4423 69.709 57.2198V51.1836C69.709 48.961 71.5106 47.1594 73.7331 47.1594H83.7935C86.016 47.1594 87.8176 48.961 87.8176 51.1836V57.2198C87.8176 59.4421 86.0158 61.2439 83.7935 61.2439Z" stroke="#debea5" stroke-width="3" stroke-miterlimit="10" stroke-linecap="round" stroke-linejoin="round"/>
</svg>
